<svg viewBox="0 0 960 540" fill="none" stroke-linecap="square" stroke-miterlimit="10" xmlns="http://www.w3.org/2000/svg"><clipPath id="a"><path d="M0 0h960v540H0V0z"/></clipPath><g clip-path="url(#a)"><path fill="#fff" d="M0 0h960v540H0z" fill-rule="evenodd"/><path fill="#666" d="M25.705 517.365v-1.93h6.463c.066.34.104.746.104 1.184 0 1.447-.397 3.24-1.672 4.515-1.24 1.293-2.827 1.982-4.929 1.982-3.895 0-7.17-3.17-7.17-7.066 0-3.895 3.275-7.066 7.17-7.066 2.154 0 3.689.844 4.843 1.947l-1.361 1.362c-.827-.776-1.948-1.379-3.481-1.379-2.844 0-5.068 2.292-5.068 5.136 0 2.844 2.224 5.136 5.068 5.136 1.844 0 2.895-.741 3.567-1.413.548-.547.908-1.333 1.048-2.407h-4.582zM42.188 518.578c0 2.62-2.05 4.55-4.567 4.55-2.517 0-4.567-1.93-4.567-4.55 0-2.637 2.05-4.55 4.567-4.55 2.516 0 4.567 1.913 4.567 4.55zm-1.999 0c0-1.637-1.189-2.758-2.568-2.758-1.378 0-2.568 1.12-2.568 2.758 0 1.62 1.189 2.758 2.568 2.758s2.568-1.138 2.568-2.758zM52.152 518.578c0 2.62-2.05 4.55-4.567 4.55-2.517 0-4.568-1.93-4.568-4.55 0-2.637 2.051-4.55 4.568-4.55 2.516 0 4.567 1.913 4.567 4.55zm-2 0c0-1.637-1.188-2.758-2.567-2.758-1.379 0-2.568 1.12-2.568 2.758 0 1.62 1.189 2.758 2.568 2.758 1.378 0 2.568-1.138 2.568-2.758zM61.702 514.304v8.17c0 3.36-1.982 4.739-4.326 4.739-2.206 0-3.533-1.483-4.033-2.69l1.74-.723c.311.741 1.069 1.62 2.293 1.62 1.5 0 2.43-.93 2.43-2.67v-.656h-.068c-.449.552-1.31 1.034-2.396 1.034-2.275 0-4.36-1.982-4.36-4.533 0-2.568 2.085-4.567 4.36-4.567 1.086 0 1.947.483 2.396 1.018h.068v-.742h1.896zm-1.758 4.291c0-1.602-1.068-2.775-2.43-2.775-1.379 0-2.533 1.173-2.533 2.775 0 1.586 1.154 2.741 2.533 2.741 1.361 0 2.43-1.155 2.43-2.74zM65.088 509.522v13.33H63.09v-13.33h2zM72.81 520.077l1.55 1.034c-.5.742-1.706 2.017-3.791 2.017-2.586 0-4.516-2-4.516-4.55 0-2.707 1.948-4.551 4.292-4.551 2.361 0 3.516 1.879 3.895 2.896l.207.517-6.084 2.516c.465.914 1.19 1.379 2.206 1.379s1.723-.499 2.24-1.258zm-4.775-1.637l4.067-1.69c-.224-.568-.896-.965-1.689-.965-1.017.001-2.43.897-2.378 2.655z" fill-rule="evenodd"/><path fill="none" d="M533.93 503.54h373.857v29.072H533.93z"/><path fill="#666" d="M813.37 519.06q-.11.906-.672 1.406-.547.484-1.485.484-1 0-1.61-.718-.609-.735-.609-1.938v-.547q0-.797.282-1.39.281-.61.797-.922.53-.328 1.203-.328.906 0 1.453.515.547.5.64 1.39h-.75q-.093-.687-.421-.984-.329-.312-.922-.312-.719 0-1.125.531-.407.531-.407 1.516v.547q0 .937.391 1.484.39.547 1.078.547.625 0 .953-.281.344-.297.453-1h.75zm.722-.344q0-.625.234-1.11.25-.5.688-.765.437-.281 1-.281.86 0 1.39.609.532.594.532 1.578v.063q0 .609-.235 1.109-.234.484-.671.766-.438.265-1.016.265-.86 0-1.39-.593-.532-.61-.532-1.594v-.047zm.719.094q0 .703.328 1.125.328.422.875.422.547 0 .875-.422.328-.438.328-1.22 0-.687-.328-1.124-.328-.438-.875-.438-.547 0-.875.438-.328.422-.328 1.219zm4.719-2.172l.015.531q.485-.61 1.266-.61 1.344 0 1.36 1.516v2.797h-.72v-2.797q-.015-.453-.218-.672-.203-.218-.64-.218-.345 0-.61.187-.266.188-.422.485v3.015h-.719v-4.234h.688zm3.976 4.234V517.2h-.672v-.562h.672v-.36q0-.703.39-1.093.407-.391 1.157-.391.438 0 1.094.234l-.11.61q-.5-.203-.937-.203-.469 0-.672.218-.203.204-.203.625v.36h.86v.562h-.86v3.672h-.719zm3 0h-.719v-4.234h.72v4.234zm1.008-2.156q0-.969.453-1.563.469-.593 1.219-.593.734 0 1.172.515v-2.203h.718v6h-.656l-.047-.453q-.422.531-1.203.531-.734 0-1.203-.593-.453-.61-.453-1.579v-.062zm.719.094q0 .718.297 1.125.296.406.828.406.687 0 1-.625v-1.938q-.328-.593-1-.593-.532 0-.828.406-.297.406-.297 1.219zm5.715 2.14q-.86 0-1.407-.562-.53-.563-.53-1.516v-.125q0-.64.233-1.125.25-.5.672-.781.438-.281.953-.281.813 0 1.266.547.469.546.469 1.562v.297h-2.86q.016.625.36 1.016.344.375.89.375.375 0 .641-.157.266-.156.469-.406l.437.344q-.53.812-1.593.812zm-.079-3.797q-.437 0-.734.329-.297.312-.375.89h2.125v-.062q-.031-.547-.297-.844-.265-.313-.719-.313zm3.254-.515l.016.531q.484-.61 1.266-.61 1.343 0 1.359 1.516v2.797h-.719v-2.797q-.015-.453-.219-.672-.203-.218-.64-.218-.344 0-.61.187-.265.188-.421.485v3.015h-.72v-4.234h.688zm4.711-1.016v1.016h.782v.562h-.782v2.625q0 .25.094.375.11.125.375.125.125 0 .344-.047v.594q-.297.078-.563.078-.484 0-.734-.297-.234-.296-.234-.828V517.2h-.782v-.562h.782v-1.016h.718zm2.41 5.25h-.718v-4.234h.718v4.234zm-.78-5.344q0-.187.109-.296.109-.125.312-.125.219 0 .328.125.11.109.11.296 0 .172-.11.297-.11.11-.328.11-.203 0-.312-.11-.11-.125-.11-.297zm4.55 5.344q-.063-.125-.094-.453-.515.531-1.203.531-.625 0-1.031-.343-.406-.36-.406-.907 0-.656.5-1.015.515-.375 1.421-.375h.704v-.328q0-.391-.235-.61-.219-.219-.656-.219-.39 0-.656.204-.266.187-.266.453h-.719q0-.313.22-.61.233-.297.608-.468.391-.172.844-.172.735 0 1.14.375.423.359.438 1v1.953q0 .578.157.922v.062h-.766zm-1.203-.547q.344 0 .64-.172.313-.187.454-.468v-.86h-.563q-1.328 0-1.328.766 0 .344.219.547.234.187.578.187zm3.726.547h-.718v-6h.718v6zm5.22-3.047h1.577v.672h-1.578v1.797h-.734v-1.797h-1.578v-.672h1.578v-1.672h.734v1.672zm5.296.813v2.234h-.75v-5.687h2.11q.921 0 1.453.484.53.469.53 1.25 0 .828-.515 1.281-.515.438-1.484.438h-1.344zm0-.61h1.36q.593 0 .906-.28.328-.282.328-.813 0-.516-.328-.813-.313-.312-.875-.328h-1.391v2.234zm6.234-.734q-.171-.031-.359-.031-.703 0-.969.61v3h-.718v-4.235h.703l.015.5q.36-.578 1-.578.219 0 .328.062v.672zm.395 1.422q0-.625.234-1.11.25-.5.688-.765.437-.281 1-.281.86 0 1.39.609.532.594.532 1.578v.063q0 .609-.235 1.109-.234.484-.672.766-.437.265-1.015.265-.86 0-1.39-.593-.532-.61-.532-1.594v-.047zm.719.094q0 .703.328 1.125.328.422.875.422.547 0 .875-.422.328-.438.328-1.22 0-.687-.328-1.124-.328-.438-.875-.438-.547 0-.875.438-.328.422-.328 1.219zm7.61 0q0 .953-.454 1.547-.438.593-1.188.593-.765 0-1.218-.484v2.031h-.72v-5.86h.657l.047.47q.438-.547 1.219-.547.765 0 1.203.578.453.578.453 1.594v.078zm-.735-.094q0-.703-.313-1.11-.297-.421-.828-.421-.656 0-.984.578v2.015q.328.579 1 .579.515 0 .812-.407.313-.422.313-1.234zm3.691-1.422q-.172-.031-.36-.031-.702 0-.968.61v3h-.719v-4.235h.703l.016.5q.36-.578 1-.578.219 0 .328.062v.672zm1.442 3.578h-.72v-4.234h.72v4.234zm-.782-5.344q0-.187.11-.296.109-.125.312-.125.219 0 .328.125.11.109.11.296 0 .172-.11.297-.11.11-.328.11-.203 0-.312-.11-.11-.125-.11-.297zm3.692 5.422q-.86 0-1.407-.562-.53-.563-.53-1.516v-.125q0-.64.234-1.125.25-.5.671-.781.438-.281.954-.281.812 0 1.265.547.469.546.469 1.562v.297h-2.86q.016.625.36 1.016.344.375.89.375.376 0 .641-.157.266-.156.469-.406l.437.344q-.53.812-1.593.812zm-.078-3.797q-.438 0-.735.329-.297.312-.375.89h2.125v-.062q-.031-.547-.297-.844-.265-.313-.718-.313zm3.55-1.53v1.015h.782v.562h-.782v2.625q0 .25.094.375.11.125.375.125.125 0 .344-.047v.594q-.297.078-.563.078-.484 0-.734-.297-.234-.296-.234-.828V517.2h-.782v-.562h.782v-1.016h.718zm4.239 5.25q-.063-.126-.094-.454-.516.531-1.203.531-.625 0-1.032-.343-.406-.36-.406-.907 0-.656.5-1.015.516-.375 1.422-.375h.703v-.328q0-.391-.234-.61-.219-.219-.656-.219-.391 0-.657.204-.265.187-.265.453h-.719q0-.313.219-.61.234-.297.61-.468.39-.172.843-.172.734 0 1.14.375.422.359.438 1v1.953q0 .578.156.922v.062h-.765zm-1.204-.548q.344 0 .641-.172.313-.187.453-.468v-.86h-.562q-1.328 0-1.328.766 0 .344.218.547.235.187.578.187zm4.993-3.031q-.172-.031-.36-.031-.703 0-.968.61v3h-.72v-4.235h.704l.016.5q.359-.578 1-.578.218 0 .328.062v.672zm2.12 2.516l.985-3.172h.766l-1.703 4.89q-.391 1.047-1.25 1.047h-.141l-.266-.062v-.578l.204.015q.359 0 .562-.156.203-.14.344-.531l.156-.438-1.5-4.187h.781l1.063 3.172z"/><path fill="#fff" d="M805.488 510.396h94.362v15.213h-94.362z" fill-rule="evenodd"/><path fill="none" d="M18.992 46.919h922.016v60.126H18.992z"/><path fill="#666" d="M34.117 86.542H45.79V89.2H30.852V64.558h3.265v21.984zM60.312 89.2q-.266-.547-.437-1.922-2.188 2.265-5.22 2.265-2.702 0-4.437-1.53-1.734-1.532-1.734-3.891 0-2.86 2.172-4.438 2.172-1.578 6.125-1.578h3.047v-1.453q0-1.64-.985-2.61-.984-.968-2.89-.968-1.688 0-2.828.843Q52 74.761 52 75.964h-3.141q0-1.375.969-2.64.968-1.282 2.64-2.016 1.672-.75 3.672-.75 3.156 0 4.953 1.578 1.797 1.578 1.86 4.36v8.421q0 2.516.64 4.016v.266h-3.281zm-5.187-2.391q1.468 0 2.78-.75 1.329-.766 1.923-1.984v-3.766h-2.453q-5.766 0-5.766 3.375 0 1.469.984 2.297.985.828 2.532.828zm15.694-15.922l.11 2.297q2.094-2.625 5.484-2.625 5.797 0 5.844 6.547v12.094h-3.125v-12.11q-.016-1.984-.906-2.922-.891-.953-2.766-.953-1.531 0-2.687.813-1.141.812-1.782 2.125v13.047h-3.125V70.886h2.953zm20.404-4.437v4.437h3.421v2.422h-3.421v11.36q0 1.093.453 1.656.468.547 1.562.547.547 0 1.5-.204V89.2q-1.234.343-2.406.343-2.094 0-3.172-1.265-1.062-1.281-1.062-3.61V73.308h-3.329v-2.422h3.329V66.45h3.125zm14.68 23.093q-3.72 0-6.063-2.437-2.328-2.453-2.328-6.547v-.578q0-2.734 1.031-4.875 1.047-2.14 2.907-3.344 1.875-1.203 4.062-1.203 3.563 0 5.547 2.36 1.984 2.343 1.984 6.718v1.297h-12.406q.063 2.719 1.578 4.39 1.516 1.657 3.86 1.657 1.656 0 2.796-.672 1.157-.687 2.016-1.797l1.922 1.485q-2.313 3.546-6.906 3.546zm-.39-16.421q-1.892 0-3.188 1.39-1.282 1.375-1.579 3.86h9.172v-.235q-.14-2.39-1.297-3.703-1.14-1.312-3.109-1.312zm20 .578q-.703-.125-1.547-.125-3.078 0-4.172 2.625v13h-3.125V70.886h3.047l.047 2.125q1.531-2.453 4.36-2.453.921 0 1.39.234V73.7zm5.836-2.813l.11 2.297q2.094-2.625 5.484-2.625 5.797 0 5.844 6.547v12.094h-3.125v-12.11q-.016-1.984-.906-2.922-.891-.953-2.766-.953-1.531 0-2.687.813-1.141.812-1.782 2.125v13.047h-3.125V70.886h2.953zm32.092 16.094q1.672 0 2.922-1.016 1.25-1.015 1.39-2.531h2.954q-.078 1.563-1.078 2.984-1 1.422-2.672 2.282-1.656.843-3.516.843-3.75 0-5.953-2.5-2.203-2.5-2.203-6.828v-.531q0-2.672.969-4.75.984-2.078 2.812-3.219 1.844-1.156 4.36-1.156 3.078 0 5.11 1.844 2.046 1.844 2.17 4.781h-2.952q-.14-1.781-1.36-2.922-1.203-1.14-2.968-1.14-2.39 0-3.703 1.718-1.313 1.719-1.313 4.969v.594q0 3.156 1.297 4.875 1.312 1.703 3.734 1.703zm19.64-13.281q-.702-.125-1.546-.125-3.078 0-4.172 2.625v13h-3.125V70.886h3.047l.047 2.125q1.53-2.453 4.36-2.453.92 0 1.39.234V73.7zm10.156 15.843q-3.719 0-6.062-2.437-2.329-2.453-2.329-6.547v-.578q0-2.734 1.032-4.875 1.047-2.14 2.906-3.344 1.875-1.203 4.062-1.203 3.563 0 5.547 2.36 1.985 2.343 1.985 6.718v1.297H187.97q.063 2.719 1.579 4.39 1.515 1.657 3.859 1.657 1.656 0 2.797-.672 1.156-.687 2.015-1.797l1.922 1.485q-2.312 3.546-6.906 3.546zm-.39-16.421q-1.891 0-3.188 1.39-1.281 1.375-1.578 3.86h9.172v-.235q-.141-2.39-1.297-3.703-1.14-1.312-3.11-1.312zM215.3 89.199q-.266-.547-.438-1.922-2.187 2.265-5.219 2.265-2.703 0-4.437-1.53-1.735-1.532-1.735-3.891 0-2.86 2.172-4.438 2.172-1.578 6.125-1.578h3.047v-1.453q0-1.64-.984-2.61-.985-.968-2.89-.968-1.688 0-2.829.843-1.125.844-1.125 2.047h-3.14q0-1.375.968-2.64.969-1.282 2.64-2.016 1.673-.75 3.673-.75 3.156 0 4.953 1.578 1.797 1.578 1.86 4.36v8.421q0 2.516.64 4.016v.266H215.3zm-5.188-2.391q1.469 0 2.781-.75 1.328-.766 1.922-1.984v-3.766h-2.453q-5.766 0-5.766 3.375 0 1.469.985 2.297.984.828 2.531.828zm16.976-20.36v4.438h3.422v2.422h-3.422v11.36q0 1.093.453 1.656.469.547 1.563.547.547 0 1.5-.204V89.2q-1.235.343-2.406.343-2.094 0-3.172-1.265-1.063-1.281-1.063-3.61V73.308h-3.328v-2.422h3.328V66.45h3.125zm14.68 23.094q-3.718 0-6.062-2.437-2.328-2.453-2.328-6.547v-.578q0-2.734 1.03-4.875 1.048-2.14 2.907-3.344 1.875-1.203 4.063-1.203 3.562 0 5.547 2.36 1.984 2.343 1.984 6.718v1.297h-12.406q.062 2.719 1.578 4.39 1.515 1.657 3.86 1.657 1.655 0 2.796-.672 1.156-.687 2.016-1.797l1.922 1.485q-2.313 3.546-6.907 3.546zm-.39-16.421q-1.89 0-3.188 1.39-1.281 1.375-1.578 3.86h9.172v-.235q-.14-2.39-1.297-3.703-1.14-1.312-3.11-1.312zm21.813 11.218q0-1.265-.953-1.968-.953-.704-3.344-1.204-2.375-.515-3.765-1.218-1.39-.72-2.063-1.703-.672-.985-.672-2.329 0-2.25 1.907-3.796 1.906-1.563 4.859-1.563 3.11 0 5.047 1.61 1.937 1.593 1.937 4.109h-3.14q0-1.297-1.094-2.219-1.094-.937-2.75-.937-1.703 0-2.672.75-.969.734-.969 1.937 0 1.14.89 1.719.907.578 3.25 1.11 2.345.515 3.798 1.25 1.453.718 2.156 1.75.703 1.015.703 2.484 0 2.453-1.969 3.937-1.953 1.484-5.078 1.484-2.203 0-3.906-.78-1.687-.782-2.64-2.173-.954-1.406-.954-3.031h3.125q.094 1.578 1.266 2.5 1.172.922 3.11.922 1.765 0 2.843-.719t1.078-1.922zm18.73-13.453l.079 2.031q2.015-2.359 5.437-2.359 3.844 0 5.235 2.938.906-1.329 2.375-2.125 1.468-.813 3.453-.813 6.03 0 6.125 6.375v12.266H301.5V77.12q0-1.97-.907-2.938-.89-.969-3-.969-1.75 0-2.906 1.047-1.14 1.031-1.328 2.781V89.2h-3.14v-12q0-3.985-3.907-3.985-3.094 0-4.219 2.61v13.375h-3.125V70.886h2.954zm38.735 16.5q-1.828 2.156-5.36 2.156-2.937 0-4.468-1.703-1.532-1.703-1.547-5.031V70.886h3.14v11.828q0 4.172 3.375 4.172 3.594 0 4.782-2.672V70.886h3.125V89.2h-2.985l-.062-1.813zm11.199 1.813h-3.125v-26h3.125v26zm9.253-22.75v4.437h3.422v2.422h-3.422v11.36q0 1.093.454 1.656.468.547 1.562.547.547 0 1.5-.204V89.2q-1.234.343-2.406.343-2.094 0-3.172-1.265-1.063-1.281-1.063-3.61V73.308h-3.328v-2.422h3.328V66.45h3.125zm10.478 22.75h-3.125V70.886h3.125V89.2zm-3.375-23.172q0-.75.453-1.281.468-.532 1.375-.532.922 0 1.39.532.485.53.485 1.296 0 .75-.485 1.266-.468.5-1.39.5-.907 0-1.375-.5-.453-.516-.453-1.281zm23.847 14.219q0 4.187-1.906 6.75-1.906 2.546-5.172 2.546-3.344 0-5.25-2.125v8.829h-3.125v-25.36h2.86l.14 2.031q1.922-2.359 5.313-2.359 3.312 0 5.218 2.484 1.922 2.485 1.922 6.922v.282zm-3.125-.36q0-3.094-1.328-4.875-1.312-1.797-3.61-1.797-2.843 0-4.265 2.516v8.75q1.406 2.5 4.297 2.5 2.25 0 3.578-1.781 1.328-1.782 1.328-5.313zM379.44 89.2h-3.125v-26h3.125v26zm12.613.343q-3.718 0-6.062-2.437-2.328-2.453-2.328-6.547v-.578q0-2.734 1.031-4.875 1.047-2.14 2.906-3.344 1.875-1.203 4.063-1.203 3.562 0 5.547 2.36 1.984 2.343 1.984 6.718v1.297h-12.406q.062 2.719 1.578 4.39 1.516 1.657 3.86 1.657 1.656 0 2.796-.672 1.156-.687 2.016-1.797l1.922 1.485q-2.313 3.546-6.907 3.546zm-.39-16.421q-1.89 0-3.188 1.39-1.28 1.375-1.578 3.86h9.172v-.235q-.14-2.39-1.297-3.703-1.14-1.312-3.11-1.312zm30.393 11.218q0-1.265-.953-1.968-.953-.704-3.344-1.204-2.375-.515-3.766-1.218-1.39-.72-2.062-1.703-.672-.985-.672-2.329 0-2.25 1.906-3.796 1.906-1.563 4.86-1.563 3.109 0 5.046 1.61 1.938 1.593 1.938 4.109h-3.14q0-1.297-1.094-2.219-1.094-.937-2.75-.937-1.704 0-2.672.75-.97.734-.97 1.937 0 1.14.892 1.719.906.578 3.25 1.11 2.343.515 3.796 1.25 1.454.718 2.157 1.75.703 1.015.703 2.484 0 2.453-1.969 3.937-1.953 1.484-5.078 1.484-2.203 0-3.906-.78-1.688-.782-2.641-2.173-.953-1.406-.953-3.031h3.125q.094 1.578 1.266 2.5 1.171.922 3.109.922 1.766 0 2.844-.719 1.078-.719 1.078-1.922zm18.51 3.047q-1.828 2.156-5.36 2.156-2.937 0-4.468-1.703-1.531-1.703-1.547-5.031V70.886h3.14v11.828q0 4.172 3.376 4.172 3.593 0 4.78-2.672V70.886h3.126V89.2h-2.984l-.063-1.813zm23.308-7.14q0 4.203-1.937 6.75-1.922 2.546-5.172 2.546-3.469 0-5.375-2.453l-.14 2.11h-2.876v-26h3.125v9.703q1.89-2.344 5.219-2.344 3.344 0 5.25 2.516 1.906 2.515 1.906 6.906v.266zm-3.14-.36q0-3.187-1.235-4.922-1.234-1.75-3.547-1.75-3.094 0-4.453 2.875v7.922q1.438 2.875 4.484 2.875 2.25 0 3.5-1.734 1.25-1.75 1.25-5.266zm6.333 0q0-4.281 1.97-6.797 1.984-2.531 5.25-2.531 3.359 0 5.234 2.36l.156-2.032h2.86v17.875q0 3.547-2.11 5.594t-5.656 2.047q-1.985 0-3.891-.844-1.89-.844-2.875-2.312l1.625-1.875q2 2.484 4.922 2.484 2.281 0 3.547-1.297 1.28-1.281 1.28-3.61v-1.577q-1.874 2.171-5.124 2.171-3.219 0-5.203-2.593-1.985-2.594-1.985-7.063zm3.141.36q0 3.093 1.266 4.875 1.28 1.765 3.562 1.765 2.969 0 4.344-2.703v-8.36q-1.438-2.609-4.313-2.609-2.28 0-3.578 1.782-1.28 1.765-1.28 5.25zm25.897-6.547q-.704-.125-1.547-.125-3.078 0-4.172 2.625v13h-3.125V70.886h3.047l.047 2.125q1.53-2.453 4.359-2.453.922 0 1.39.234V73.7zm13.503 15.5q-.266-.547-.438-1.922-2.187 2.265-5.219 2.265-2.703 0-4.437-1.53-1.735-1.532-1.735-3.891 0-2.86 2.172-4.438 2.172-1.578 6.125-1.578h3.047v-1.453q0-1.64-.984-2.61-.985-.968-2.89-.968-1.688 0-2.829.843-1.125.844-1.125 2.047h-3.14q0-1.375.968-2.64.969-1.282 2.64-2.016 1.673-.75 3.673-.75 3.156 0 4.953 1.578 1.797 1.578 1.86 4.36v8.421q0 2.516.64 4.016v.266h-3.281zm-5.188-2.391q1.469 0 2.781-.75 1.328-.766 1.922-1.984v-3.766h-2.453q-5.766 0-5.766 3.375 0 1.469.985 2.297.984.828 2.531.828zm28.195-6.562q0 4.187-1.906 6.75-1.907 2.546-5.172 2.546-3.344 0-5.25-2.125v8.829h-3.125v-25.36h2.86l.14 2.031q1.922-2.359 5.312-2.359 3.313 0 5.219 2.484 1.922 2.485 1.922 6.922v.282zm-3.125-.36q0-3.094-1.328-4.875-1.313-1.797-3.61-1.797-2.843 0-4.265 2.516v8.75q1.406 2.5 4.297 2.5 2.25 0 3.578-1.781 1.328-1.782 1.328-5.313zm10.24-6.781q2.078-2.547 5.422-2.547 5.797 0 5.844 6.547v12.094h-3.125v-12.11q-.016-1.984-.906-2.922-.891-.953-2.766-.953-1.531 0-2.688.813-1.14.812-1.78 2.125v13.047h-3.126v-26h3.125v9.906zm26.62 11.234q0-1.265-.954-1.968-.953-.704-3.343-1.204-2.375-.515-3.766-1.218-1.39-.72-2.063-1.703-.671-.985-.671-2.329 0-2.25 1.906-3.796 1.906-1.563 4.86-1.563 3.109 0 5.046 1.61 1.938 1.593 1.938 4.109h-3.141q0-1.297-1.094-2.219-1.094-.937-2.75-.937-1.703 0-2.672.75-.968.734-.968 1.937 0 1.14.89 1.719.906.578 3.25 1.11 2.344.515 3.797 1.25 1.453.718 2.156 1.75.703 1.015.703 2.484 0 2.453-1.968 3.937-1.953 1.484-5.078 1.484-2.204 0-3.907-.78-1.687-.782-2.64-2.173-.953-1.406-.953-3.031h3.125q.093 1.578 1.265 2.5 1.172.922 3.11.922 1.765 0 2.843-.719t1.078-1.922zm17.324 4.86V73.308h-2.891v-2.422h2.89v-1.875q0-2.937 1.579-4.547 1.578-1.61 4.453-1.61 1.078 0 2.14.282l-.171 2.547q-.782-.156-1.688-.156-1.516 0-2.344.89-.828.891-.828 2.547v1.922h3.906v2.422h-3.906v15.89h-3.14zm9.672-9.328q0-2.688 1.047-4.829 1.062-2.156 2.937-3.312 1.89-1.172 4.313-1.172 3.75 0 6.046 2.594 2.313 2.578 2.313 6.875v.219q0 2.671-1.031 4.796-1.016 2.125-2.922 3.313-1.89 1.187-4.375 1.187-3.719 0-6.031-2.593-2.297-2.594-2.297-6.86v-.218zm3.14.375q0 3.046 1.407 4.89 1.421 1.844 3.78 1.844 2.391 0 3.798-1.86 1.406-1.874 1.406-5.25 0-3.015-1.438-4.874-1.421-1.875-3.796-1.875-2.313 0-3.735 1.843-1.422 1.844-1.422 5.282zm26.296-6.547q-.703-.125-1.546-.125-3.079 0-4.172 2.625v13h-3.125V70.886h3.047l.046 2.125q1.532-2.453 4.36-2.453.922 0 1.39.234V73.7zm19.057 15.843q-3.719 0-6.063-2.437-2.328-2.453-2.328-6.547v-.578q0-2.734 1.031-4.875 1.047-2.14 2.907-3.344 1.875-1.203 4.062-1.203 3.563 0 5.547 2.36 1.984 2.343 1.984 6.718v1.297h-12.406q.063 2.719 1.578 4.39 1.516 1.657 3.86 1.657 1.656 0 2.797-.672 1.156-.687 2.015-1.797l1.922 1.485q-2.312 3.546-6.906 3.546zm-.39-16.421q-1.891 0-3.188 1.39-1.282 1.375-1.578 3.86h9.171v-.235q-.14-2.39-1.296-3.703-1.141-1.312-3.11-1.312zm22.453 16.078q-.265-.547-.437-1.922-2.188 2.265-5.219 2.265-2.703 0-4.437-1.53-1.735-1.532-1.735-3.891 0-2.86 2.172-4.438 2.172-1.578 6.125-1.578h3.047v-1.453q0-1.64-.984-2.61-.985-.968-2.891-.968-1.688 0-2.828.843-1.125.844-1.125 2.047h-3.14q0-1.375.968-2.64.969-1.282 2.64-2.016 1.672-.75 3.672-.75 3.157 0 4.954 1.578 1.796 1.578 1.859 4.36v8.421q0 2.516.64 4.016v.266h-3.28zm-5.187-2.391q1.469 0 2.781-.75 1.328-.766 1.922-1.984v-3.766h-2.453q-5.766 0-5.766 3.375 0 1.469.985 2.297.984.828 2.53.828zm20.085.172q1.672 0 2.922-1.016 1.25-1.015 1.39-2.531h2.954q-.078 1.563-1.078 2.984-1 1.422-2.672 2.282-1.656.843-3.516.843-3.75 0-5.953-2.5-2.203-2.5-2.203-6.828v-.531q0-2.672.969-4.75.984-2.078 2.812-3.219 1.844-1.156 4.36-1.156 3.078 0 5.11 1.844 2.046 1.844 2.171 4.781h-2.953q-.14-1.781-1.36-2.922-1.203-1.14-2.968-1.14-2.39 0-3.703 1.718-1.313 1.719-1.313 4.969v.594q0 3.156 1.297 4.875 1.312 1.703 3.734 1.703zm13.922-13.875q2.078-2.547 5.422-2.547 5.797 0 5.844 6.547v12.094h-3.125v-12.11q-.016-1.984-.907-2.922-.89-.953-2.765-.953-1.532 0-2.688.813-1.14.812-1.781 2.125v13.047h-3.125v-26h3.125v9.906zm27.48-2.219l.078 2.031q2.016-2.359 5.438-2.359 3.843 0 5.234 2.938.906-1.329 2.375-2.125 1.469-.813 3.453-.813 6.031 0 6.125 6.375v12.266h-3.125V77.12q0-1.97-.906-2.938-.89-.969-3-.969-1.75 0-2.906 1.047-1.141 1.031-1.329 2.781V89.2h-3.14v-12q0-3.985-3.906-3.985-3.094 0-4.22 2.61v13.375h-3.124V70.886h2.953zm35.031 18.656q-3.719 0-6.062-2.437-2.328-2.453-2.328-6.547v-.578q0-2.734 1.03-4.875 1.048-2.14 2.907-3.344 1.875-1.203 4.063-1.203 3.562 0 5.546 2.36 1.985 2.343 1.985 6.718v1.297h-12.406q.062 2.719 1.578 4.39 1.515 1.657 3.86 1.657 1.655 0 2.796-.672 1.156-.687 2.016-1.797l1.921 1.485q-2.312 3.546-6.906 3.546zm-.39-16.421q-1.891 0-3.188 1.39-1.281 1.375-1.578 3.86h9.172v-.235q-.14-2.39-1.297-3.703-1.14-1.312-3.11-1.312zm15.391-6.672v4.437h3.422v2.422h-3.422v11.36q0 1.093.453 1.656.47.547 1.563.547.547 0 1.5-.204V89.2q-1.235.343-2.406.343-2.094 0-3.172-1.265-1.063-1.281-1.063-3.61V73.308h-3.328v-2.422h3.328V66.45h3.125zm15.93 7.25q-.703-.125-1.547-.125-3.078 0-4.171 2.625v13h-3.125V70.886h3.046l.047 2.125q1.532-2.453 4.36-2.453.922 0 1.39.234V73.7zm6.274 15.5h-3.125V70.886h3.125V89.2zm-3.375-23.172q0-.75.453-1.281.469-.532 1.375-.532.922 0 1.39.532.485.53.485 1.296 0 .75-.484 1.266-.469.5-1.39.5-.907 0-1.376-.5-.453-.516-.453-1.281zm15.739 20.953q1.671 0 2.921-1.016 1.25-1.015 1.391-2.531h2.953q-.078 1.563-1.078 2.984-1 1.422-2.672 2.282-1.656.843-3.515.843-3.75 0-5.954-2.5-2.203-2.5-2.203-6.828v-.531q0-2.672.969-4.75.984-2.078 2.813-3.219 1.843-1.156 4.359-1.156 3.078 0 5.11 1.844 2.046 1.844 2.171 4.781h-2.953q-.14-1.781-1.36-2.922-1.202-1.14-2.968-1.14-2.39 0-3.703 1.718-1.313 1.719-1.313 4.969v.594q0 3.156 1.297 4.875 1.313 1.703 3.735 1.703z"/><path fill="none" d="M18.992 8h922.016v60.126H18.992z"/><path fill="#ccc" d="M44.758 42.6h-2.516v-8.766h-9.547V42.6h-2.5V23.647h2.5v8.156h9.547v-8.156h2.516V42.6zm3.425-7.172q0-2.062.812-3.719.813-1.656 2.266-2.546 1.453-.907 3.312-.907 2.875 0 4.64 2 1.782 1.985 1.782 5.297v.156q0 2.063-.781 3.703-.781 1.626-2.25 2.547-1.469.907-3.375.907-2.86 0-4.64-1.985-1.766-2-1.766-5.281v-.172zm2.421.281q0 2.344 1.079 3.766 1.093 1.422 2.906 1.422 1.844 0 2.922-1.438 1.078-1.437 1.078-4.03 0-2.313-1.11-3.75-1.093-1.438-2.906-1.438-1.781 0-2.875 1.422-1.094 1.406-1.094 4.046zm25.89 3.578l2.704-10.765h2.406L77.51 42.6h-1.953l-3.422-10.672L68.791 42.6h-1.953L62.76 28.522h2.39l2.782 10.531 3.266-10.531h1.953l3.343 10.766zm13.568-3.843q0-3.25 1.531-5.219 1.547-1.969 4.032-1.969 2.468 0 3.921 1.688V22.6h2.407v20h-2.219l-.11-1.516q-1.453 1.782-4.03 1.782-2.438 0-3.985-2-1.547-2.016-1.547-5.235v-.187zm2.406.265q0 2.407.985 3.766 1 1.344 2.734 1.344 2.297 0 3.36-2.063v-6.468q-1.094-1.985-3.329-1.985-1.765 0-2.765 1.375-.985 1.36-.985 4.031zm12.58-.28q0-2.063.813-3.72.812-1.656 2.266-2.546 1.453-.907 3.312-.907 2.875 0 4.64 2 1.782 1.985 1.782 5.297v.156q0 2.063-.781 3.703-.782 1.626-2.25 2.547-1.47.907-3.375.907-2.86 0-4.641-1.985-1.766-2-1.766-5.281v-.172zm2.422.28q0 2.344 1.078 3.766 1.094 1.422 2.907 1.422 1.843 0 2.922-1.438 1.078-1.437 1.078-4.03 0-2.313-1.11-3.75-1.093-1.438-2.906-1.438-1.781 0-2.875 1.422-1.094 1.406-1.094 4.046zm19.265 7.157q-2.875 0-4.672-1.875-1.797-1.891-1.797-5.047v-.438q0-2.093.797-3.734.813-1.656 2.25-2.578 1.438-.938 3.11-.938 2.75 0 4.265 1.813 1.532 1.812 1.532 5.172v1h-9.532q.047 2.093 1.203 3.375 1.172 1.28 2.97 1.28 1.28 0 2.155-.515.891-.531 1.547-1.39l1.485 1.156q-1.782 2.719-5.313 2.719zm-.312-12.625q-1.453 0-2.438 1.062-.984 1.047-1.219 2.969h7.047v-.188q-.11-1.828-1-2.828-.875-1.015-2.39-1.015zm16.778 8.625q0-.985-.734-1.516-.735-.547-2.563-.938-1.828-.39-2.906-.937-1.063-.547-1.578-1.297-.516-.75-.516-1.797 0-1.734 1.453-2.922 1.469-1.203 3.75-1.203 2.39 0 3.875 1.235 1.5 1.234 1.5 3.172h-2.422q0-1-.843-1.704-.828-.718-2.11-.718-1.312 0-2.062.578-.735.562-.735 1.484 0 .875.688 1.328.687.438 2.484.844 1.813.39 2.922.953 1.125.563 1.672 1.36.547.78.547 1.906 0 1.89-1.516 3.031-1.515 1.14-3.922 1.14-1.687 0-3-.593-1.296-.61-2.03-1.672-.735-1.078-.735-2.328h2.406q.063 1.203.969 1.922.906.703 2.39.703 1.375 0 2.188-.547.828-.563.828-1.484zm14.766 3.734h-2.407V28.522h2.407V42.6zm-2.61-17.813q0-.593.36-1 .359-.406 1.062-.406.703 0 1.063.407.375.406.375 1 0 .578-.375.968-.36.39-1.063.39t-1.062-.39q-.36-.39-.36-.968zm9.735.313v3.422h2.625v1.86h-2.625v8.734q0 .843.343 1.265.36.422 1.203.422.407 0 1.141-.156V42.6q-.953.266-1.844.266-1.609 0-2.437-.97-.813-.983-.813-2.78V30.38h-2.578v-1.86h2.578V25.1h2.407zm24.51 14.188l2.702-10.766h2.407L190.617 42.6h-1.953l-3.422-10.672-3.344 10.672h-1.953l-4.078-14.078h2.39l2.782 10.531 3.265-10.531h1.953l3.344 10.766zm6.921-3.86q0-2.062.813-3.719.812-1.656 2.265-2.546 1.453-.907 3.313-.907 2.875 0 4.64 2 1.782 1.985 1.782 5.297v.156q0 2.063-.782 3.703-.78 1.626-2.25 2.547-1.468.907-3.375.907-2.859 0-4.64-1.985-1.766-2-1.766-5.281v-.172zm2.422.281q0 2.344 1.078 3.766 1.094 1.422 2.906 1.422 1.844 0 2.922-1.438 1.078-1.437 1.078-4.03 0-2.313-1.109-3.75-1.094-1.438-2.906-1.438-1.782 0-2.875 1.422-1.094 1.406-1.094 4.046zm20.218-5.03q-.547-.095-1.188-.095-2.359 0-3.203 2.016v10h-2.406V28.522h2.344l.031 1.625q1.188-1.89 3.36-1.89.703 0 1.062.187v2.234zm6.145 5.405l-1.5 1.563V42.6h-2.422v-20h2.422v12.094l1.281-1.547 4.39-4.625h2.923l-5.485 5.875 6.125 8.203h-2.828l-4.906-6.516zm12.4 1.172q.032-1.547.36-2.437.328-.907 1.328-2l1.703-1.75q1.094-1.235 1.094-2.656 0-1.36-.719-2.141-.718-.781-2.078-.781-1.328 0-2.14.703-.797.703-.797 1.89h-2.422q.031-2.109 1.5-3.406 1.484-1.297 3.86-1.297 2.452 0 3.827 1.328 1.375 1.329 1.375 3.625 0 2.282-2.109 4.485l-1.422 1.406q-.953 1.063-.953 3.031h-2.406zm-.093 4.14q0-.593.36-.983.359-.407 1.062-.407.703 0 1.062.407.36.39.36.984 0 .578-.36.969-.359.375-1.062.375-.703 0-1.063-.375-.359-.391-.359-.97z"/><path fill="none" d="M130.105 188.35h26.74v33.416h26.74"/><path stroke="#b7b7b7" stroke-linejoin="round" stroke-linecap="butt" d="M130.105 188.35h26.74v33.416h26.74"/><path fill="none" d="M130.105 188.35h26.74v.062h26.74"/><path stroke="#b7b7b7" stroke-linejoin="round" stroke-linecap="butt" d="M130.105 188.35h26.74v.062h26.74"/><path fill="none" d="M192.72 230.913v53.796h20.724"/><path stroke="#b7b7b7" stroke-linejoin="round" stroke-linecap="butt" d="M192.72 230.913v53.796h20.724"/><path fill="none" d="M201.853 177.179c0-3.085 2.5-5.586 5.585-5.586h112.956a5.585 5.585 0 0 1 5.585 5.586v22.34c0 3.085-2.5 5.586-5.585 5.586H207.438a5.585 5.585 0 0 1-5.585-5.585z"/><path fill="#000" d="M220.051 189.648q0 1.765-.828 2.844-.812 1.078-2.187 1.078-1.469 0-2.266-1.032l-.062.891h-1.22v-11h1.33v4.11q.796-1 2.202-1 1.422 0 2.219 1.078.812 1.062.812 2.906v.125zm-1.328-.156q0-1.344-.53-2.079-.517-.75-1.5-.75-1.313 0-1.876 1.22v3.343q.61 1.219 1.89 1.219.954 0 1.485-.735.531-.734.531-2.218zm4.426 3.937h-1.328v-11h1.328v11zm1.776-3.937q0-1.141.437-2.047.453-.922 1.25-1.407.797-.5 1.828-.5 1.578 0 2.547 1.094.984 1.094.984 2.922v.094q0 1.125-.437 2.031-.438.89-1.25 1.39-.797.5-1.844.5-1.562 0-2.547-1.093-.968-1.094-.968-2.89v-.094zm1.328.156q0 1.281.593 2.062.594.782 1.594.782 1.016 0 1.61-.782.593-.797.593-2.218 0-1.282-.609-2.063-.594-.797-1.594-.797-.984 0-1.594.781-.593.782-.593 2.235zm10.483 2.844q.703 0 1.235-.422.531-.438.593-1.078h1.25q-.03.656-.453 1.265-.422.594-1.14.953-.703.36-1.485.36-1.578 0-2.515-1.047-.938-1.063-.938-2.89v-.22q0-1.14.406-2.015.422-.875 1.204-1.36.78-.5 1.828-.5 1.312 0 2.172.782.859.781.921 2.031h-1.25q-.062-.75-.578-1.234-.5-.485-1.265-.485-1 0-1.563.735-.547.718-.547 2.093v.25q0 1.328.547 2.063.547.719 1.578.719zm6.719-2.641l-.828.86v2.718h-1.313v-11h1.313v6.656l.718-.859 2.407-2.547h1.61l-3.017 3.234 3.36 4.516h-1.547l-2.703-3.578zm6.71 3.578h-1.329v-7.75h1.328v7.75zm-1.422-9.797q0-.328.187-.547.203-.218.578-.218.39 0 .594.218.203.22.203.547 0 .328-.203.547-.203.203-.594.203-.375 0-.578-.203-.187-.219-.187-.547zm4.79 2.047l.048.984q.89-1.125 2.312-1.125 2.469 0 2.484 2.782v5.11h-1.328v-5.126q0-.844-.375-1.234-.375-.407-1.172-.407-.64 0-1.14.344-.485.344-.75.906v5.516h-1.328v-7.75h1.25zm6.525 3.813q0-1.813.828-2.875.844-1.079 2.234-1.079 1.407 0 2.203 1l.063-.859h1.219v7.563q0 1.5-.89 2.359-.892.875-2.407.875-.828 0-1.64-.36-.798-.359-1.22-.984l.688-.781q.86 1.047 2.078 1.047.969 0 1.5-.547.547-.547.547-1.531v-.657q-.781.907-2.156.907-1.36 0-2.203-1.094-.844-1.094-.844-2.984zm1.328.156q0 1.312.531 2.062.547.735 1.516.735 1.25 0 1.828-1.14v-3.532q-.61-1.11-1.813-1.11-.968 0-1.515.75-.547.75-.547 2.235zm7.238 3.094q0-.344.203-.579.203-.234.61-.234.406 0 .61.234.218.235.218.579 0 .328-.219.546-.203.22-.61.22-.406 0-.609-.22-.203-.218-.203-.546zm6.936-.25q.703 0 1.234-.422.531-.438.594-1.078h1.25q-.031.656-.453 1.265-.422.594-1.141.953-.703.36-1.484.36-1.578 0-2.516-1.047-.937-1.063-.937-2.89v-.22q0-1.14.406-2.015.422-.875 1.203-1.36.781-.5 1.828-.5 1.313 0 2.172.782.86.781.922 2.031h-1.25q-.063-.75-.578-1.234-.5-.485-1.266-.485-1 0-1.562.735-.547.718-.547 2.093v.25q0 1.328.547 2.063.546.719 1.578.719zm9.078-1.11q0-.547-.407-.844-.406-.296-1.422-.5-1-.218-1.593-.515-.578-.313-.875-.719-.282-.422-.282-1 0-.937.813-1.594.812-.672 2.062-.672 1.313 0 2.125.688.829.672.829 1.734h-1.329q0-.547-.468-.937-.453-.39-1.157-.39-.734 0-1.14.312-.406.312-.406.828 0 .469.375.719.39.25 1.375.468 1 .22 1.609.532.61.296.906.734.297.437.297 1.062 0 1.032-.828 1.657t-2.156.625q-.922 0-1.641-.328-.719-.329-1.125-.922-.39-.594-.39-1.282h1.312q.047.672.531 1.063.5.39 1.313.39.75 0 1.203-.296.469-.313.469-.813zm7.557 0q0-.547-.407-.844-.406-.296-1.421-.5-1-.218-1.594-.515-.578-.313-.875-.719-.281-.422-.281-1 0-.937.812-1.594.813-.672 2.063-.672 1.312 0 2.125.688.828.672.828 1.734h-1.328q0-.547-.47-.937-.452-.39-1.155-.39-.735 0-1.141.312t-.406.828q0 .469.375.719.39.25 1.375.468 1 .22 1.609.532.61.296.906.734.297.437.297 1.062 0 1.032-.828 1.657t-2.156.625q-.922 0-1.64-.328-.72-.329-1.126-.922-.39-.594-.39-1.282h1.312q.047.672.531 1.063.5.39 1.313.39.75 0 1.203-.296.469-.313.469-.813z"/><path fill="#90f" d="M183.585 188.35a9.134 9.134 0 1 1 18.268 0 9.134 9.134 0 0 1-18.268 0z" fill-rule="evenodd"/><path fill="none" d="M10.992 177.179c0-3.085 2.5-5.586 5.586-5.586h89.05a5.585 5.585 0 0 1 5.585 5.586v22.34c0 3.085-2.501 5.586-5.586 5.586h-89.05a5.585 5.585 0 0 1-5.585-5.585z"/><path fill="#000" d="M34.957 193.43H33.63v-7.75h1.328v7.75zm-1.422-9.798q0-.328.188-.547.203-.218.578-.218.39 0 .594.218.203.22.203.547 0 .328-.203.547-.204.203-.594.203-.375 0-.578-.203-.188-.219-.188-.547zm4.791 2.047l.047.984q.89-1.125 2.313-1.125 2.468 0 2.484 2.782v5.11h-1.328v-5.126q0-.844-.375-1.234-.375-.407-1.172-.407-.64 0-1.14.344-.485.344-.75.906v5.516h-1.329v-7.75h1.25zm6.525 3.813q0-1.782.843-2.86.844-1.094 2.203-1.094 1.36 0 2.157.938v-4.047h1.328v11h-1.219l-.062-.828q-.797.969-2.22.969-1.343 0-2.187-1.094-.843-1.11-.843-2.875v-.11zm1.312.156q0 1.312.547 2.062.547.735 1.5.735 1.266 0 1.844-1.125v-3.563q-.594-1.094-1.828-1.094-.97 0-1.516.75-.547.75-.547 2.235zm10.484 3.922q-1.578 0-2.562-1.032-.985-1.03-.985-2.765v-.25q0-1.14.438-2.047.437-.906 1.219-1.422.797-.516 1.718-.516 1.516 0 2.344 1 .844 1 .844 2.844v.547h-5.25q.031 1.156.672 1.86.64.703 1.625.703.703 0 1.187-.282.5-.297.86-.765l.812.625q-.984 1.5-2.922 1.5zm-.172-6.938q-.796 0-1.343.594-.547.578-.672 1.625h3.875v-.11q-.047-1-.547-1.546-.484-.563-1.313-.563zm7.312 1.875l1.719-2.828h1.547l-2.532 3.828 2.61 3.922H65.6l-1.782-2.89-1.797 2.89h-1.53l2.609-3.922-2.532-3.828H62.1l1.687 2.828zm4.701 4.235q0-.344.203-.579.203-.234.61-.234.406 0 .61.234.218.235.218.579 0 .328-.219.546-.203.22-.61.22-.406 0-.609-.22-.203-.218-.203-.546zm5.154-6.125q.875-1.079 2.282-1.079 2.468 0 2.484 2.782v5.11H77.08v-5.126q0-.844-.375-1.234-.375-.407-1.172-.407-.64 0-1.14.344-.485.344-.75.906v5.516h-1.329v-11h1.328v4.188zm8.542-2.813v1.875h1.453v1.031h-1.453v4.797q0 .469.187.703.203.235.672.235.219 0 .625-.094v1.078q-.531.14-1.016.14-.89 0-1.343-.53-.454-.547-.454-1.532v-4.797H79.45v-1.03h1.406v-1.876h1.329zm4.24 1.875l.032.86q.859-1 2.296-1 1.625 0 2.22 1.25.374-.563 1-.907.624-.344 1.468-.344 2.547 0 2.578 2.704v5.187h-1.312v-5.11q0-.827-.391-1.234-.375-.422-1.266-.422-.734 0-1.234.454-.484.437-.563 1.171v5.141h-1.328v-5.078q0-1.688-1.656-1.688-1.297 0-1.781 1.11v5.656h-1.313v-7.75h1.25zm13.033 7.75H98.13v-11h1.328v11z"/><path fill="#4285f4" d="M111.837 188.35a9.134 9.134 0 1 1 18.268 0 9.134 9.134 0 0 1-18.268 0z" fill-rule="evenodd"/><path fill="none" d="M201.853 210.609c0-3.085 2.5-5.585 5.585-5.585h112.956a5.586 5.586 0 0 1 5.585 5.585v22.341c0 3.085-2.5 5.585-5.585 5.585H207.438a5.585 5.585 0 0 1-5.585-5.585z"/><path fill="#000" d="M220.051 223.078q0 1.766-.828 2.844-.812 1.078-2.187 1.078-1.469 0-2.266-1.031l-.062.89h-1.22v-11h1.33v4.11q.796-1 2.202-1 1.422 0 2.219 1.078.812 1.063.812 2.906v.125zm-1.328-.156q0-1.344-.53-2.078-.517-.75-1.5-.75-1.313 0-1.876 1.219v3.343q.61 1.22 1.89 1.22.954 0 1.485-.735.531-.735.531-2.219zm4.426 3.938h-1.328v-11h1.328v11zm1.776-3.938q0-1.14.437-2.047.453-.922 1.25-1.406.797-.5 1.828-.5 1.578 0 2.547 1.094.984 1.093.984 2.922v.093q0 1.125-.437 2.032-.438.89-1.25 1.39-.797.5-1.844.5-1.562 0-2.547-1.094-.968-1.093-.968-2.89v-.094zm1.328.156q0 1.282.593 2.063.594.781 1.594.781 1.016 0 1.61-.781.593-.797.593-2.219 0-1.281-.609-2.062-.594-.797-1.594-.797-.984 0-1.594.78-.593.782-.593 2.235zm10.483 2.844q.703 0 1.235-.422.531-.437.593-1.078h1.25q-.03.656-.453 1.266-.422.593-1.14.953-.703.36-1.485.36-1.578 0-2.515-1.048-.938-1.062-.938-2.89v-.22q0-1.14.406-2.015.422-.875 1.204-1.36.78-.5 1.828-.5 1.312 0 2.172.782.859.781.921 2.031h-1.25q-.062-.75-.578-1.234-.5-.484-1.265-.484-1 0-1.563.734-.547.719-.547 2.094v.25q0 1.328.547 2.062.547.719 1.578.719zm6.719-2.64l-.828.859v2.719h-1.313v-11h1.313v6.656l.718-.86 2.407-2.546h1.61l-3.017 3.234 3.36 4.516h-1.547l-2.703-3.579zm6.71 3.578h-1.329v-7.75h1.328v7.75zm-1.422-9.797q0-.328.187-.547.203-.219.578-.219.39 0 .594.219.203.219.203.547 0 .328-.203.547-.203.203-.594.203-.375 0-.578-.203-.187-.22-.187-.547zm4.79 2.047l.048.984q.89-1.125 2.312-1.125 2.469 0 2.484 2.781v5.11h-1.328v-5.125q0-.844-.375-1.235-.375-.406-1.172-.406-.64 0-1.14.344-.485.343-.75.906v5.516h-1.328v-7.75h1.25zm6.525 3.812q0-1.812.828-2.875.844-1.078 2.234-1.078 1.407 0 2.203 1l.063-.86h1.219v7.563q0 1.5-.89 2.36-.892.874-2.407.874-.828 0-1.64-.359-.798-.36-1.22-.984l.688-.782q.86 1.047 2.078 1.047.969 0 1.5-.547.547-.546.547-1.53v-.657q-.781.906-2.156.906-1.36 0-2.203-1.094-.844-1.093-.844-2.984zm1.328.156q0 1.313.531 2.063.547.734 1.516.734 1.25 0 1.828-1.14v-3.532q-.61-1.11-1.813-1.11-.968 0-1.515.75-.547.75-.547 2.235zm7.238 3.094q0-.344.203-.578.203-.234.61-.234.406 0 .61.234.218.234.218.578 0 .328-.219.547-.203.219-.61.219-.406 0-.609-.22-.203-.218-.203-.546zm5.201-7.062v8.64q0 2.235-2.031 2.235-.437 0-.812-.125v-1.063q.234.063.609.063.437 0 .672-.25.234-.235.234-.829v-8.671h1.328zm-1.468-2.047q0-.313.187-.532.203-.234.594-.234.375 0 .578.219.203.219.203.547 0 .328-.203.547-.203.203-.594.203-.375 0-.578-.203-.187-.22-.187-.547zm8.108 7.75q0-.547-.406-.844-.406-.297-1.422-.5-1-.219-1.594-.516-.578-.312-.875-.718-.28-.422-.28-1 0-.938.812-1.594.812-.672 2.062-.672 1.313 0 2.125.687.828.672.828 1.735h-1.328q0-.547-.469-.938-.453-.39-1.156-.39-.734 0-1.14.312-.407.313-.407.828 0 .469.375.719.391.25 1.375.469 1 .219 1.61.531.61.297.906.734.297.438.297 1.063 0 1.031-.828 1.656t-2.157.625q-.921 0-1.64-.328-.719-.328-1.125-.922-.39-.594-.39-1.281h1.312q.047.672.531 1.062.5.391 1.312.391.75 0 1.204-.297.468-.312.468-.812z"/><path fill="#fbbc05" d="M183.585 221.78a9.134 9.134 0 1 1 18.268 0 9.134 9.134 0 0 1-18.268 0z" fill-rule="evenodd"/><path fill="none" d="M231.698 273.528c0-3.085 2.5-5.586 5.586-5.586H373.23a5.585 5.585 0 0 1 5.585 5.586v22.34c0 3.085-2.5 5.586-5.585 5.586H237.284a5.585 5.585 0 0 1-5.586-5.585z"/><path fill="#000" d="M245.49 286.2l-.828.86v2.718h-1.312v-11h1.312v6.656l.719-.859 2.406-2.547h1.61l-3.016 3.235 3.36 4.515h-1.548l-2.703-3.578zm6.71 3.578h-1.328v-7.75h1.328v7.75zm-1.422-9.797q0-.328.188-.547.203-.218.578-.218.39 0 .593.218.204.22.204.547 0 .328-.204.547-.203.203-.593.203-.375 0-.578-.203-.188-.219-.188-.547zm4.791 2.047l.047.985q.89-1.125 2.312-1.125 2.47 0 2.485 2.78v5.11h-1.328v-5.125q0-.844-.375-1.234-.375-.406-1.172-.406-.64 0-1.14.343-.485.344-.75.907v5.515h-1.329v-7.75h1.25zm6.524 3.813q0-1.782.844-2.86.844-1.093 2.203-1.093 1.36 0 2.156.937v-4.047h1.329v11h-1.22l-.062-.828q-.797.969-2.218.969-1.344 0-2.188-1.094-.844-1.11-.844-2.875v-.11zm1.313.156q0 1.312.547 2.062.547.735 1.5.735 1.265 0 1.843-1.125v-3.563q-.593-1.093-1.828-1.093-.968 0-1.515.75-.547.75-.547 2.234zm12.047 3.781q-.11-.234-.188-.812-.922.953-2.203.953-1.14 0-1.875-.64-.734-.657-.734-1.641 0-1.22.922-1.875.921-.672 2.578-.672h1.297v-.61q0-.703-.422-1.11-.407-.405-1.22-.405-.702 0-1.187.359-.484.344-.484.86h-1.328q0-.579.406-1.11.422-.547 1.125-.86.703-.327 1.547-.327 1.344 0 2.094.671.765.672.797 1.844v3.563q0 1.062.265 1.703v.11h-1.39zm-2.203-1.015q.625 0 1.187-.313.563-.328.813-.844v-1.578h-1.047q-2.422 0-2.422 1.422 0 .625.406.969.422.344 1.063.344zm8.144-2.875h-3.485v-1.079h3.485v1.079zm7.855.109q0 1.766-.828 2.844-.812 1.078-2.187 1.078-1.469 0-2.266-1.031l-.062.89h-1.219v-11h1.328v4.11q.797-1 2.203-1 1.422 0 2.219 1.078.812 1.062.812 2.906v.125zm-1.328-.156q0-1.344-.53-2.078-.517-.75-1.5-.75-1.313 0-1.876 1.218v3.344q.61 1.219 1.89 1.219.954 0 1.485-.735.531-.734.531-2.218zm4.426 3.937h-1.328v-11h1.328v11zm1.776-3.937q0-1.141.437-2.047.453-.922 1.25-1.406.797-.5 1.828-.5 1.578 0 2.547 1.093.984 1.094.984 2.922v.094q0 1.125-.437 2.031-.438.89-1.25 1.39-.797.5-1.844.5-1.562 0-2.547-1.093-.968-1.094-.968-2.89v-.094zm1.328.156q0 1.281.593 2.062.594.782 1.594.782 1.016 0 1.61-.782.593-.796.593-2.218 0-1.282-.609-2.063-.594-.797-1.594-.797-.984 0-1.594.782-.593.78-.593 2.234zm10.483 2.844q.703 0 1.235-.422.531-.438.593-1.078h1.25q-.03.656-.453 1.265-.422.594-1.14.953-.703.36-1.485.36-1.578 0-2.515-1.047-.938-1.063-.938-2.89v-.22q0-1.14.406-2.015.422-.875 1.204-1.36.78-.5 1.828-.5 1.312 0 2.172.782.859.781.921 2.031h-1.25q-.062-.75-.578-1.234-.5-.485-1.265-.485-1 0-1.563.735-.547.718-.547 2.093v.25q0 1.329.547 2.063.547.719 1.578.719zm6.719-2.641l-.828.86v2.718h-1.313v-11h1.313v6.656l.718-.859 2.407-2.547h1.61l-3.017 3.235 3.36 4.515h-1.547l-2.703-3.578zm6.71 3.578h-1.329v-7.75h1.328v7.75zm-1.422-9.797q0-.328.187-.547.203-.218.578-.218.39 0 .594.218.203.22.203.547 0 .328-.203.547-.203.203-.594.203-.375 0-.578-.203-.187-.219-.187-.547zm4.79 2.047l.048.985q.89-1.125 2.312-1.125 2.469 0 2.484 2.78v5.11h-1.328v-5.125q0-.844-.375-1.234-.375-.406-1.172-.406-.64 0-1.14.343-.485.344-.75.907v5.515h-1.328v-7.75h1.25zm6.525 3.813q0-1.813.828-2.875.844-1.078 2.234-1.078 1.407 0 2.203 1l.063-.86h1.219v7.563q0 1.5-.89 2.359-.892.875-2.407.875-.828 0-1.64-.36-.798-.359-1.22-.984l.688-.781q.86 1.047 2.078 1.047.969 0 1.5-.547.547-.547.547-1.531v-.656q-.781.906-2.156.906-1.36 0-2.203-1.094-.844-1.094-.844-2.984zm1.328.156q0 1.312.531 2.062.547.735 1.516.735 1.25 0 1.828-1.14v-3.532q-.61-1.11-1.813-1.11-.968 0-1.515.75-.547.75-.547 2.235zm7.238 3.094q0-.344.203-.578.204-.235.61-.235t.61.235q.218.234.218.578 0 .328-.219.547-.203.218-.61.218-.405 0-.609-.218-.203-.22-.203-.547zm6.936-.25q.703 0 1.234-.422.531-.438.594-1.078h1.25q-.031.656-.453 1.265-.422.594-1.14.953-.704.36-1.485.36-1.578 0-2.516-1.047-.937-1.063-.937-2.89v-.22q0-1.14.406-2.015.422-.875 1.203-1.36.781-.5 1.828-.5 1.313 0 2.172.782.86.781.922 2.031h-1.25q-.063-.75-.578-1.234-.5-.485-1.266-.485-1 0-1.562.735-.547.718-.547 2.093v.25q0 1.329.547 2.063.546.719 1.578.719zm9.078-1.11q0-.547-.407-.843-.406-.297-1.422-.5-1-.22-1.593-.516-.578-.313-.875-.719-.282-.422-.282-1 0-.937.813-1.594.812-.671 2.062-.671 1.313 0 2.125.687.829.672.829 1.734h-1.329q0-.546-.468-.937-.453-.39-1.157-.39-.734 0-1.14.312-.406.312-.406.828 0 .469.375.719.39.25 1.375.468 1 .22 1.609.532.61.297.906.734.297.438.297 1.063 0 1.03-.828 1.656-.828.625-2.156.625-.922 0-1.64-.328-.72-.328-1.126-.922-.39-.594-.39-1.281h1.312q.047.671.531 1.062.5.39 1.313.39.75 0 1.203-.296.469-.313.469-.813zm7.557 0q0-.547-.407-.843-.406-.297-1.421-.5-1-.22-1.594-.516-.578-.313-.875-.719-.281-.422-.281-1 0-.937.812-1.594.813-.671 2.063-.671 1.312 0 2.125.687.828.672.828 1.734h-1.328q0-.546-.47-.937-.452-.39-1.155-.39-.735 0-1.141.312t-.406.828q0 .469.375.719.39.25 1.375.468 1 .22 1.61.532.608.297.905.734.297.438.297 1.063 0 1.03-.828 1.656-.828.625-2.156.625-.922 0-1.64-.328-.72-.328-1.126-.922-.39-.594-.39-1.281h1.312q.047.671.531 1.062.5.39 1.313.39.75 0 1.203-.296.469-.313.469-.813z"/><path fill="#90f" d="M213.43 284.698a9.134 9.134 0 1 1 18.268 0 9.134 9.134 0 0 1-18.268 0z" fill-rule="evenodd"/><path fill="none" d="M201.853 307.04c0-3.085 2.5-5.586 5.585-5.586h135.948a5.586 5.586 0 0 1 5.585 5.585v22.341c0 3.085-2.5 5.586-5.585 5.586H207.438a5.585 5.585 0 0 1-5.585-5.586z"/><path fill="#000" d="M218.27 323.29q-.11-.234-.187-.813-.922.954-2.203.954-1.141 0-1.875-.641-.735-.656-.735-1.64 0-1.22.922-1.876.922-.672 2.578-.672h1.297v-.609q0-.703-.422-1.11-.406-.406-1.219-.406-.703 0-1.187.36-.484.344-.484.86h-1.329q0-.579.407-1.11.422-.547 1.125-.86.703-.328 1.547-.328 1.343 0 2.093.672.766.672.797 1.844v3.562q0 1.063.266 1.704v.109h-1.39zm-2.203-1.016q.625 0 1.188-.312.562-.328.812-.844v-1.578h-1.047q-2.422 0-2.422 1.422 0 .625.407.969.421.343 1.062.343zm9.91-1.03q0-.548-.406-.845-.407-.297-1.422-.5-1-.218-1.594-.515-.578-.313-.875-.719-.281-.422-.281-1 0-.938.812-1.594.813-.672 2.063-.672 1.312 0 2.125.688.828.672.828 1.734h-1.328q0-.547-.47-.937-.452-.39-1.155-.39-.735 0-1.141.312t-.406.828q0 .468.375.718.39.25 1.375.47 1 .218 1.61.53.609.297.905.735.297.437.297 1.062 0 1.032-.828 1.657t-2.156.625q-.922 0-1.64-.329-.72-.328-1.126-.921-.39-.594-.39-1.282h1.312q.047.672.531 1.063.5.39 1.313.39.75 0 1.203-.296.469-.313.469-.813zm5.573.108l1.812-5.812h1.406l-3.11 8.937q-.718 1.938-2.296 1.938l-.25-.016-.5-.093v-1.079l.36.032q.671 0 1.046-.282.39-.265.625-.984l.297-.781-2.765-7.672h1.453l1.922 5.812zm5.653-5.812l.047.984q.89-1.125 2.312-1.125 2.469 0 2.485 2.782v5.109h-1.329v-5.125q0-.844-.375-1.234-.375-.407-1.171-.407-.641 0-1.141.344-.484.344-.75.906v5.516h-1.328v-7.75h1.25zm9.946 6.812q.703 0 1.234-.421.531-.438.594-1.079h1.25q-.031.657-.453 1.266-.422.594-1.14.953-.704.36-1.485.36-1.578 0-2.516-1.047-.937-1.063-.937-2.89v-.22q0-1.14.406-2.015.422-.875 1.203-1.36.781-.5 1.828-.5 1.313 0 2.172.782.86.78.922 2.03h-1.25q-.063-.75-.578-1.234-.5-.484-1.266-.484-1 0-1.562.734-.547.72-.547 2.094v.25q0 1.328.547 2.063.547.718 1.578.718zm4.593.25q0-.343.203-.578.204-.234.61-.234t.61.234q.218.235.218.578 0 .329-.219.547-.203.22-.61.22-.405 0-.609-.22-.203-.218-.203-.547zm5.201-7.062v8.64q0 2.235-2.03 2.235-.438 0-.813-.125v-1.063q.234.063.609.063.438 0 .672-.25.234-.234.234-.828v-8.672h1.328zm-1.468-2.047q0-.312.187-.531.203-.235.594-.235.375 0 .578.22.203.218.203.546 0 .328-.203.547-.203.203-.594.203-.375 0-.578-.203-.187-.219-.187-.547zm8.108 7.75q0-.547-.406-.844-.406-.297-1.422-.5-1-.218-1.593-.515-.579-.313-.875-.719-.282-.422-.282-1 0-.938.813-1.594.812-.672 2.062-.672 1.313 0 2.125.688.828.672.828 1.734h-1.328q0-.547-.468-.937-.454-.39-1.157-.39-.734 0-1.14.312-.407.312-.407.828 0 .468.375.718.391.25 1.375.47 1 .218 1.61.53.61.297.906.735.297.437.297 1.062 0 1.032-.828 1.657t-2.156.625q-.922 0-1.641-.329-.719-.328-1.125-.921-.39-.594-.39-1.282h1.312q.047.672.531 1.063.5.39 1.313.39.75 0 1.203-.296.468-.313.468-.813z"/><path fill="#f4c23c" d="M183.585 318.21a9.134 9.134 0 1 1 18.268 0 9.134 9.134 0 0 1-18.268 0z" fill-rule="evenodd"/><path fill="none" d="M130.105 188.35h26.74v129.857h26.74"/><path stroke="#b7b7b7" stroke-linejoin="round" stroke-linecap="butt" d="M130.105 188.35h26.74v129.857h26.74"/><path fill="none" d="M263.698 370.83c0-3.085 2.5-5.586 5.586-5.586H405.23a5.585 5.585 0 0 1 5.585 5.586v22.34c0 3.085-2.5 5.586-5.585 5.586H269.284a5.585 5.585 0 0 1-5.586-5.585z"/><path fill="#000" d="M277.928 382.158l1.719-2.828h1.546l-2.53 3.828 2.609 3.922h-1.532l-1.78-2.89-1.798 2.89h-1.531l2.61-3.922-2.532-3.828h1.531l1.688 2.828zm5.998-1.89q.875-1.079 2.281-1.079 2.469 0 2.485 2.782v5.109h-1.329v-5.125q0-.844-.375-1.234-.375-.407-1.171-.407-.641 0-1.141.344-.484.344-.75.906v5.516h-1.328v-11h1.328v4.187zm10.494.25q-.312-.047-.656-.047-1.297 0-1.766 1.109v5.5h-1.328v-7.75h1.297l.016.906q.656-1.047 1.843-1.047.391 0 .594.11v1.218zm.36 5.874q0-.343.203-.578.203-.234.61-.234.406 0 .609.234.219.235.219.578 0 .329-.22.547-.202.22-.609.22-.406 0-.609-.22-.203-.218-.203-.547zm5.201-7.062v8.64q0 2.235-2.031 2.235-.438 0-.813-.125v-1.063q.235.063.61.063.437 0 .671-.25.235-.234.235-.828v-8.672h1.328zm-1.469-2.047q0-.312.188-.531.203-.235.593-.235.375 0 .579.22.203.218.203.546 0 .328-.203.547-.204.203-.594.203-.375 0-.578-.203-.188-.219-.188-.547zm8.11 7.75q0-.547-.407-.844-.406-.297-1.422-.5-1-.218-1.594-.515-.578-.313-.875-.719-.281-.422-.281-1 0-.938.812-1.594.813-.672 2.063-.672 1.312 0 2.125.688.828.672.828 1.734h-1.328q0-.547-.469-.937-.453-.39-1.156-.39-.734 0-1.14.312-.407.312-.407.828 0 .468.375.718.39.25 1.375.47 1 .218 1.61.53.609.297.906.735.297.437.297 1.062 0 1.032-.829 1.657-.828.625-2.156.625-.922 0-1.64-.329-.72-.328-1.125-.921-.391-.594-.391-1.282h1.312q.047.672.532 1.063.5.39 1.312.39.75 0 1.203-.296.47-.313.47-.813z"/><path fill="#f4c23c" d="M245.43 382a9.134 9.134 0 1 1 18.268 0 9.134 9.134 0 1 1-18.268 0z" fill-rule="evenodd"/><path fill="none" d="M222.564 359.134V382h22.866"/><path stroke="#b7b7b7" stroke-linejoin="round" stroke-linecap="butt" d="M222.564 359.134V382h22.866"/><path fill="none" d="M231.698 241.528c0-3.085 2.5-5.586 5.586-5.586H373.23a5.585 5.585 0 0 1 5.585 5.586v22.34c0 3.085-2.5 5.586-5.585 5.586H237.284a5.585 5.585 0 0 1-5.586-5.585z"/><path fill="#000" d="M251.21 254.466q-.188 1.656-1.22 2.562-1.03.89-2.734.89-1.844 0-2.953-1.312-1.11-1.328-1.11-3.547v-1q0-1.453.516-2.546.516-1.11 1.469-1.704.953-.593 2.203-.593 1.656 0 2.656.937 1 .922 1.172 2.547h-1.375q-.187-1.234-.781-1.797-.594-.562-1.672-.562-1.313 0-2.063.984-.75.969-.75 2.766v1q0 1.703.704 2.703.718 1 1.984 1 1.14 0 1.75-.516.625-.515.828-1.812h1.375zm3.242-.766v4.078h-1.375v-10.422h3.843q1.72 0 2.688.875.969.875.969 2.313 0 1.515-.953 2.344-.938.812-2.72.812h-2.452zm0-1.125h2.468q1.11 0 1.688-.516.594-.515.594-1.5 0-.937-.594-1.484-.578-.562-1.61-.578h-2.546v4.078zm15.214-5.219v7.094q-.015 1.469-.937 2.406-.906.938-2.484 1.047l-.36.016q-1.719 0-2.734-.922-1.016-.922-1.031-2.547v-7.094h1.359v7.063q0 1.125.625 1.75t1.781.625q1.156 0 1.766-.61.625-.625.625-1.765v-7.063h1.39zm7.382.797v1.875h1.453v1.031h-1.453v4.797q0 .469.188.703.203.235.672.235.218 0 .625-.094v1.078q-.532.14-1.016.14-.89 0-1.344-.53-.453-.547-.453-1.532v-4.797h-1.406v-1.03h1.406v-1.876h1.328zm7.772 9.625q-.109-.234-.187-.812-.922.953-2.203.953-1.14 0-1.875-.64-.735-.657-.735-1.641 0-1.22.922-1.875.922-.672 2.578-.672h1.297v-.61q0-.703-.422-1.11-.406-.405-1.218-.405-.704 0-1.188.359-.484.344-.484.86h-1.328q0-.579.406-1.11.422-.547 1.125-.86.703-.327 1.547-.327 1.343 0 2.093.671.766.672.797 1.844v3.563q0 1.062.266 1.703v.11h-1.39zm-2.203-1.015q.625 0 1.188-.313.562-.328.812-.844v-1.578h-1.047q-2.422 0-2.422 1.422 0 .625.407.969.422.344 1.062.344zm9.91-1.032q0-.547-.406-.843-.407-.297-1.422-.5-1-.22-1.594-.516-.578-.313-.875-.719-.281-.422-.281-1 0-.937.812-1.594.813-.671 2.063-.671 1.312 0 2.125.687.828.672.828 1.734h-1.328q0-.546-.469-.937-.453-.39-1.156-.39-.735 0-1.14.312-.407.312-.407.828 0 .469.375.719.39.25 1.375.468 1 .22 1.61.532.609.297.906.734.296.438.296 1.063 0 1.03-.828 1.656-.828.625-2.156.625-.922 0-1.64-.328-.72-.328-1.126-.922-.39-.594-.39-1.281h1.312q.047.671.532 1.062.5.39 1.312.39.75 0 1.203-.296.469-.313.469-.813zm5.198-1.531l-.828.86v2.718h-1.313v-11h1.313v6.656l.718-.859 2.407-2.547h1.609l-3.016 3.235 3.36 4.515h-1.547l-2.703-3.578z"/><path fill="#fbbc05" d="M213.43 252.698a9.134 9.134 0 1 1 18.268 0 9.134 9.134 0 0 1-18.268 0z" fill-rule="evenodd"/><path stroke="#000" stroke-linejoin="round" stroke-linecap="butt" d="M213.43 252.698a9.134 9.134 0 1 1 18.268 0 9.134 9.134 0 0 1-18.268 0z"/><path fill="none" d="M192.72 230.913v21.796h20.724"/><path stroke="#b7b7b7" stroke-linejoin="round" stroke-linecap="butt" d="M192.72 230.913v21.796h20.724"/><path fill="none" d="M295.698 404.551c0-3.084 2.5-5.585 5.586-5.585H437.23a5.585 5.585 0 0 1 5.585 5.585v22.341c0 3.085-2.5 5.586-5.585 5.586H301.284a5.585 5.585 0 0 1-5.586-5.586z"/><path fill="#000" d="M315.21 417.49q-.188 1.656-1.22 2.562-1.03.89-2.734.89-1.844 0-2.953-1.312-1.11-1.328-1.11-3.547v-1q0-1.453.516-2.547.516-1.11 1.469-1.703.953-.594 2.203-.594 1.656 0 2.656.938 1 .922 1.172 2.547h-1.375q-.187-1.235-.781-1.797-.594-.563-1.672-.563-1.313 0-2.063.985-.75.968-.75 2.765v1q0 1.703.704 2.703.718 1 1.984 1 1.14 0 1.75-.515.625-.516.828-1.813h1.375zm3.242-.766v4.078h-1.375V410.38h3.843q1.72 0 2.688.875.969.875.969 2.312 0 1.516-.953 2.344-.938.813-2.72.813h-2.452zm0-1.125h2.468q1.11 0 1.688-.516.594-.516.594-1.5 0-.937-.594-1.484-.578-.563-1.61-.578h-2.546v4.078zm15.214-5.22v7.095q-.015 1.468-.937 2.406-.906.937-2.484 1.047l-.36.015q-1.719 0-2.734-.921-1.016-.922-1.031-2.547v-7.094h1.359v7.062q0 1.125.625 1.75t1.781.625q1.156 0 1.766-.609.625-.625.625-1.766v-7.062h1.39zm7.382.798v1.875h1.453v1.031h-1.453v4.797q0 .469.188.703.203.234.672.234.218 0 .625-.093v1.078q-.532.14-1.016.14-.89 0-1.344-.53-.453-.548-.453-1.532v-4.797h-1.406v-1.031h1.406v-1.875h1.328zm7.772 9.625q-.109-.235-.187-.813-.922.953-2.203.953-1.14 0-1.875-.64-.735-.656-.735-1.64 0-1.22.922-1.876.922-.672 2.578-.672h1.297v-.61q0-.702-.422-1.108-.406-.407-1.218-.407-.704 0-1.188.36-.484.343-.484.86h-1.328q0-.58.406-1.11.422-.547 1.125-.86.703-.328 1.547-.328 1.343 0 2.093.672.766.672.797 1.844v3.562q0 1.063.266 1.703v.11h-1.39zm-2.203-1.016q.625 0 1.188-.312.562-.328.812-.844v-1.578h-1.047q-2.422 0-2.422 1.422 0 .625.407.968.422.344 1.062.344zm9.91-1.031q0-.547-.406-.844-.407-.297-1.422-.5-1-.219-1.594-.515-.578-.313-.875-.72-.281-.421-.281-1 0-.937.812-1.593.813-.672 2.063-.672 1.312 0 2.125.688.828.672.828 1.734h-1.328q0-.547-.469-.937-.453-.391-1.156-.391-.735 0-1.14.312-.407.313-.407.829 0 .468.375.718.39.25 1.375.47 1 .218 1.61.53.609.297.906.735.296.437.296 1.062 0 1.031-.828 1.656t-2.156.625q-.922 0-1.64-.328-.72-.328-1.126-.922-.39-.593-.39-1.28h1.312q.047.671.532 1.062.5.39 1.312.39.75 0 1.203-.297.469-.312.469-.812zm5.198-1.531l-.828.86v2.718h-1.313v-11h1.313v6.656l.718-.86 2.407-2.546h1.609l-3.016 3.234 3.36 4.516h-1.547l-2.703-3.578z"/><path fill="#fbbc05" d="M277.43 415.722a9.134 9.134 0 1 1 18.268 0 9.134 9.134 0 0 1-18.268 0z" fill-rule="evenodd"/><path stroke="#000" stroke-linejoin="round" stroke-linecap="butt" d="M277.43 415.722a9.134 9.134 0 1 1 18.268 0 9.134 9.134 0 0 1-18.268 0z"/><path fill="none" d="M254.564 391.134v24.598h22.866"/><path stroke="#b7b7b7" stroke-linejoin="round" stroke-linecap="butt" d="M254.564 391.134v24.598h22.866"/><path fill="none" d="M231.698 338.83c0-3.085 2.5-5.586 5.586-5.586H373.23a5.585 5.585 0 0 1 5.585 5.586v22.34c0 3.085-2.5 5.586-5.585 5.586H237.284a5.585 5.585 0 0 1-5.586-5.585z"/><path fill="#000" d="M251.21 351.767q-.188 1.657-1.22 2.563-1.03.89-2.734.89-1.844 0-2.953-1.312-1.11-1.328-1.11-3.547v-1q0-1.453.516-2.547.516-1.109 1.469-1.703.953-.594 2.203-.594 1.656 0 2.656.938 1 .922 1.172 2.547h-1.375q-.187-1.235-.781-1.797-.594-.563-1.672-.563-1.313 0-2.063.985-.75.969-.75 2.765v1q0 1.704.704 2.704.718 1 1.984 1 1.14 0 1.75-.516.625-.516.828-1.813h1.375zm3.242-.765v4.078h-1.375v-10.422h3.843q1.72 0 2.688.875.969.875.969 2.313 0 1.515-.953 2.343-.938.813-2.72.813h-2.452zm0-1.125h2.468q1.11 0 1.688-.516.594-.515.594-1.5 0-.937-.594-1.484-.578-.563-1.61-.578h-2.546v4.078zm15.214-5.219v7.094q-.015 1.469-.937 2.406-.906.938-2.484 1.047l-.36.016q-1.719 0-2.734-.922-1.016-.922-1.031-2.547v-7.094h1.359v7.063q0 1.125.625 1.75t1.781.625q1.156 0 1.766-.61.625-.625.625-1.765v-7.063h1.39zm7.382.797v1.875h1.453v1.031h-1.453v4.797q0 .469.188.703.203.235.672.235.218 0 .625-.094v1.078q-.532.14-1.016.14-.89 0-1.344-.53-.453-.548-.453-1.532v-4.797h-1.406v-1.031h1.406v-1.875h1.328zm7.772 9.625q-.109-.234-.187-.813-.922.954-2.203.954-1.14 0-1.875-.641-.735-.656-.735-1.64 0-1.22.922-1.876.922-.672 2.578-.672h1.297v-.609q0-.703-.422-1.11-.406-.406-1.218-.406-.704 0-1.188.36-.484.344-.484.86h-1.328q0-.579.406-1.11.422-.547 1.125-.86.703-.328 1.547-.328 1.343 0 2.093.672.766.672.797 1.844v3.563q0 1.062.266 1.703v.109h-1.39zm-2.203-1.016q.625 0 1.188-.312.562-.328.812-.844v-1.578h-1.047q-2.422 0-2.422 1.422 0 .625.407.969.422.343 1.062.343zm9.91-1.03q0-.548-.406-.845-.407-.297-1.422-.5-1-.218-1.594-.515-.578-.313-.875-.719-.281-.422-.281-1 0-.938.812-1.594.813-.672 2.063-.672 1.312 0 2.125.688.828.672.828 1.734h-1.328q0-.547-.469-.937-.453-.39-1.156-.39-.735 0-1.14.312-.407.312-.407.828 0 .469.375.719.39.25 1.375.468 1 .219 1.61.531.609.297.906.735.296.437.296 1.062 0 1.032-.828 1.657t-2.156.625q-.922 0-1.64-.329-.72-.328-1.126-.921-.39-.594-.39-1.282h1.312q.047.672.532 1.063.5.39 1.312.39.75 0 1.203-.296.469-.313.469-.813zm5.198-1.532l-.828.86v2.718h-1.313v-11h1.313v6.656l.718-.86 2.407-2.546h1.609l-3.016 3.234 3.36 4.516h-1.547l-2.703-3.578z"/><path fill="#f4c23c" d="M213.43 350a9.134 9.134 0 1 1 18.268 0 9.134 9.134 0 1 1-18.268 0z" fill-rule="evenodd"/><path stroke="#000" stroke-linejoin="round" stroke-linecap="butt" d="M213.43 350a9.134 9.134 0 1 1 18.268 0 9.134 9.134 0 1 1-18.268 0z"/><path fill="none" d="M192.72 327.344v22.646h20.724"/><path stroke="#b7b7b7" stroke-linejoin="round" stroke-linecap="butt" d="M192.72 327.344v22.646h20.724"/><path fill="none" d="M23.913 133.627h271.465v33.764H23.913z"/><path fill="#000" d="M34.445 160.547v-13.36h9.015v1.579h-7.25v4.14h6.266v1.579H36.21v6.062h-1.765zm17.427 0v-1.422q-1.125 1.641-3.063 1.641-.859 0-1.609-.328-.734-.328-1.094-.828-.36-.5-.5-1.219-.11-.469-.11-1.531v-5.985h1.641v5.36q0 1.281.11 1.734.156.64.656 1.016.5.375 1.234.375.735 0 1.375-.375.657-.39.922-1.031.266-.657.266-1.891v-5.188h1.64v9.672h-1.468zm4 0v-13.36h1.641v13.36h-1.64zm4.145 0v-13.36h1.641v13.36h-1.64zm9.579 0v-13.36h5.046q1.329 0 2.032.126.968.172 1.64.64.672.454 1.078 1.282.407.828.407 1.828 0 1.703-1.094 2.89-1.078 1.172-3.922 1.172h-3.422v5.422h-1.765zm1.765-7h3.453q1.719 0 2.438-.64.719-.641.719-1.797 0-.844-.422-1.438-.422-.593-1.125-.78-.438-.126-1.641-.126h-3.422v4.781zm16.787 5.813q-.921.765-1.765 1.094-.828.312-1.797.312-1.594 0-2.453-.781-.86-.781-.86-1.985 0-.718.329-1.296.328-.594.843-.938.532-.36 1.188-.547.469-.125 1.453-.25 1.984-.234 2.922-.562.015-.344.015-.422 0-1-.468-1.422-.625-.547-1.875-.547-1.157 0-1.703.406-.547.407-.813 1.422l-1.61-.219q.22-1.015.72-1.64.5-.64 1.453-.985.953-.343 2.187-.343 1.25 0 2.016.297.781.28 1.14.734.375.437.516 1.11.078.421.078 1.515v2.187q0 2.282.11 2.891.109.594.406 1.156h-1.703q-.266-.515-.329-1.187zm-.14-3.672q-.89.375-2.672.625-1.016.14-1.438.328-.421.188-.656.531-.219.344-.219.782 0 .656.5 1.093.5.438 1.454.438.937 0 1.671-.406.75-.422 1.094-1.141.266-.563.266-1.64v-.61zm3.891 5.656l1.594.235q.11.75.562 1.078.61.453 1.672.453 1.14 0 1.75-.453.625-.453.844-1.266.125-.5.11-2.11-1.063 1.266-2.672 1.266-2 0-3.094-1.437-1.094-1.438-1.094-3.453 0-1.391.5-2.563.516-1.172 1.453-1.797.953-.64 2.25-.64 1.703 0 2.813 1.375v-1.157h1.515v8.36q0 2.265-.468 3.203-.454.937-1.454 1.484-.984.547-2.453.547-1.718 0-2.797-.781-1.062-.766-1.03-2.344zm1.36-5.812q0 1.906.75 2.78.765.876 1.906.876 1.125 0 1.89-.86.766-.874.766-2.734 0-1.781-.797-2.672-.781-.906-1.89-.906-1.094 0-1.86.89-.765.876-.765 2.626zm15.953 1.906l1.688.203q-.406 1.484-1.484 2.313-1.079.812-2.766.812-2.125 0-3.375-1.297-1.234-1.312-1.234-3.672 0-2.453 1.25-3.797 1.265-1.343 3.265-1.343 1.938 0 3.156 1.328 1.235 1.312 1.235 3.703v.437h-7.219q.094 1.594.906 2.454.813.843 2.016.843.906 0 1.547-.468.64-.485 1.015-1.516zm-5.39-2.656h5.406q-.11-1.22-.625-1.828-.781-.954-2.031-.954-1.125 0-1.906.766-.766.75-.844 2.016zm20.778.53v-1.577h5.656v4.953q-1.297 1.047-2.688 1.578-1.375.516-2.843.516-1.97 0-3.579-.844-1.609-.844-2.421-2.438-.813-1.593-.813-3.562 0-1.953.813-3.64.812-1.688 2.343-2.5 1.532-.829 3.516-.829 1.453 0 2.625.469t1.828 1.312q.672.829 1.016 2.172l-1.594.438q-.297-1.016-.75-1.594-.438-.594-1.266-.937-.828-.344-1.843-.344-1.204 0-2.094.375-.89.36-1.438.969-.53.593-.828 1.312-.515 1.234-.515 2.688 0 1.78.609 2.984.625 1.203 1.797 1.797 1.172.578 2.5.578 1.14 0 2.234-.438 1.094-.453 1.656-.953v-2.484H124.6zm8.042 5.235v-9.672h1.469v1.47q.562-1.032 1.031-1.36.485-.328 1.063-.328.828 0 1.687.53l-.562 1.517q-.61-.36-1.203-.36-.547 0-.97.328-.421.328-.609.89-.28.876-.28 1.923v5.062h-1.626zm12.541-1.187q-.922.765-1.766 1.094-.828.312-1.796.312-1.594 0-2.454-.781-.859-.781-.859-1.985 0-.718.328-1.296.328-.594.844-.938.531-.36 1.187-.547.47-.125 1.454-.25 1.984-.234 2.921-.562.016-.344.016-.422 0-1-.469-1.422-.625-.547-1.875-.547-1.156 0-1.703.406-.547.407-.812 1.422l-1.61-.219q.219-1.015.719-1.64.5-.64 1.453-.985.953-.343 2.188-.343 1.25 0 2.015.297.782.28 1.14.734.376.437.517 1.11.078.421.078 1.515v2.187q0 2.282.109 2.891.11.594.406 1.156h-1.703q-.265-.515-.328-1.187zm-.14-3.672q-.891.375-2.672.625-1.016.14-1.438.328-.422.188-.656.531-.219.344-.219.782 0 .656.5 1.093.5.438 1.453.438.938 0 1.672-.406.75-.422 1.094-1.141.265-.563.265-1.64v-.61zm4.203 8.562v-13.375h1.485v1.25q.53-.734 1.187-1.093.672-.375 1.625-.375 1.235 0 2.172.64.953.625 1.438 1.797.484 1.156.484 2.547 0 1.484-.531 2.672-.532 1.187-1.547 1.828-1.016.625-2.14.625-.813 0-1.47-.344-.656-.343-1.062-.875v4.703h-1.64zm1.485-8.484q0 1.86.75 2.766.765.89 1.828.89 1.094 0 1.875-.922.781-.937.781-2.875 0-1.843-.766-2.765-.75-.922-1.812-.922-1.047 0-1.86.984-.796.97-.796 2.844zm8.891 4.781v-13.36h1.64v4.798q1.141-1.328 2.891-1.328 1.078 0 1.86.422.796.421 1.14 1.171.344.75.344 2.172v6.125h-1.64v-6.125q0-1.234-.532-1.797-.531-.562-1.516-.562-.718 0-1.359.39-.64.376-.922 1.016-.265.64-.265 1.781v5.297h-1.641z"/><path fill="none" d="M538.297 133.627H809.76v33.764H538.297z"/><path fill="#000" d="M548.828 160.547v-13.36h9.015v1.579h-7.25v4.14h6.266v1.579h-6.266v6.062h-1.765zm20.833-4.687l1.766.453q-.563 2.172-2 3.328-1.438 1.14-3.531 1.14-2.157 0-3.516-.874-1.344-.891-2.062-2.547-.704-1.672-.704-3.594 0-2.078.797-3.625.797-1.562 2.266-2.36 1.484-.812 3.25-.812 2 0 3.36 1.016 1.374 1.015 1.906 2.875l-1.735.406q-.469-1.453-1.36-2.11-.874-.671-2.202-.671-1.547 0-2.578.734-1.032.735-1.454 1.985-.421 1.234-.421 2.562 0 1.703.5 2.969.5 1.265 1.546 1.906 1.047.625 2.266.625 1.484 0 2.516-.86 1.03-.859 1.39-2.546zm3.942 4.687v-13.36h5.047q1.328 0 2.031.126.969.172 1.64.64.673.454 1.079 1.282.406.828.406 1.828 0 1.703-1.094 2.89-1.078 1.172-3.921 1.172h-3.422v5.422h-1.766zm1.766-7h3.453q1.719 0 2.437-.64.719-.641.719-1.797 0-.844-.422-1.438-.422-.593-1.125-.78-.437-.126-1.64-.126h-3.422v4.781zm14.992.5q0-3.328 1.782-5.203 1.78-1.89 4.609-1.89 1.844 0 3.328.89 1.484.875 2.266 2.469.781 1.578.781 3.578 0 2.031-.828 3.64-.813 1.594-2.313 2.423-1.5.828-3.25.828-1.875 0-3.359-.907-1.484-.921-2.25-2.5-.766-1.578-.766-3.328zm1.813.016q0 2.422 1.297 3.812 1.297 1.391 3.265 1.391 2 0 3.282-1.406 1.28-1.406 1.28-3.985 0-1.625-.546-2.843-.547-1.22-1.61-1.875-1.062-.672-2.374-.672-1.891 0-3.25 1.297-1.344 1.28-1.344 4.28zM605.2 164.25v-13.375h1.484v1.25q.532-.734 1.188-1.093.672-.375 1.625-.375 1.234 0 2.172.64.953.625 1.437 1.797.485 1.156.485 2.547 0 1.484-.532 2.672-.53 1.187-1.547 1.828-1.015.625-2.14.625-.813 0-1.469-.344-.656-.343-1.062-.875v4.703H605.2zm1.484-8.484q0 1.86.75 2.766.766.89 1.828.89 1.094 0 1.875-.922.782-.937.782-2.875 0-1.843-.766-2.765-.75-.922-1.812-.922-1.047 0-1.86.984-.797.97-.797 2.844zm12.47 3.313l.234 1.453q-.687.14-1.234.14-.89 0-1.39-.28-.485-.282-.688-.735-.203-.47-.203-1.938v-5.578h-1.204v-1.266h1.204v-2.39l1.625-.985v3.375h1.656v1.266h-1.656v5.672q0 .687.078.89.093.204.28.329.204.109.579.109.266 0 .719-.062zm1.605-10v-1.891h1.64v1.89h-1.64zm0 11.468v-9.672h1.64v9.672h-1.64zm4.145 0v-9.672h1.469v1.36q.453-.719 1.203-1.14.765-.438 1.718-.438 1.079 0 1.766.453.688.437.969 1.234 1.156-1.687 2.984-1.687 1.453 0 2.219.797.781.796.781 2.453v6.64h-1.64v-6.093q0-.985-.157-1.407-.156-.437-.578-.703-.422-.265-.984-.265-1.016 0-1.688.687-.672.672-.672 2.156v5.625h-1.64v-6.28q0-1.095-.406-1.642-.407-.546-1.313-.546-.687 0-1.281.359-.594.36-.86 1.062-.25.704-.25 2.032v5.015h-1.64zm15.54-11.468v-1.891h1.641v1.89h-1.64zm0 11.468v-9.672h1.641v9.672h-1.64zm3.49-2.89l1.624-.25q.125.968.75 1.5.625.515 1.75.515t1.672-.453q.547-.469.547-1.094 0-.546-.484-.875-.329-.218-1.672-.546-1.813-.47-2.516-.797-.687-.328-1.047-.907-.36-.593-.36-1.312 0-.64.298-1.188.297-.562.812-.921.375-.282 1.031-.47.672-.202 1.422-.202 1.14 0 2 .328.86.328 1.266.89.422.563.578 1.5l-1.61.22q-.109-.75-.64-1.173-.516-.422-1.469-.422-1.14 0-1.625.375-.468.375-.468.875 0 .313.187.579.203.265.64.437.235.094 1.438.422 1.75.453 2.438.75.687.297 1.078.86.39.562.39 1.406 0 .828-.484 1.546-.469.72-1.375 1.125-.906.391-2.047.391-1.875 0-2.875-.781-.984-.781-1.25-2.328zm13.562 1.422l.234 1.453q-.687.14-1.234.14-.89 0-1.39-.28-.485-.282-.688-.735-.204-.47-.204-1.938v-5.578h-1.203v-1.266h1.203v-2.39l1.625-.985v3.375h1.657v1.266h-1.657v5.672q0 .687.079.89.093.204.28.329.204.109.579.109.266 0 .719-.062zm1.605-10v-1.891h1.64v1.89h-1.64zm0 11.468v-9.672h1.64v9.672h-1.64zM669.559 157l1.61.22q-.266 1.655-1.36 2.609-1.078.937-2.672.937-1.984 0-3.187-1.297-1.203-1.297-1.203-3.719 0-1.578.515-2.75.516-1.171 1.578-1.75 1.063-.593 2.313-.593 1.578 0 2.578.797 1 .796 1.281 2.265l-1.593.235q-.235-.97-.813-1.454-.578-.5-1.39-.5-1.235 0-2.016.891-.781.89-.781 2.813 0 1.953.75 2.843.75.875 1.953.875.968 0 1.61-.593.655-.594.827-1.829zm14.652-1.687v-1.578h5.656v4.953q-1.296 1.047-2.687 1.578-1.375.516-2.844.516-1.969 0-3.578-.844-1.61-.844-2.422-2.438-.812-1.593-.812-3.562 0-1.953.812-3.64.813-1.688 2.344-2.5 1.531-.829 3.516-.829 1.453 0 2.625.469 1.171.469 1.828 1.312.672.829 1.015 2.172l-1.593.438q-.297-1.016-.75-1.594-.438-.594-1.266-.937-.828-.344-1.844-.344-1.203 0-2.094.375-.89.36-1.437.969-.531.593-.828 1.312-.516 1.234-.516 2.688 0 1.78.61 2.984.625 1.203 1.796 1.797 1.172.578 2.5.578 1.141 0 2.235-.438 1.094-.453 1.656-.953v-2.484h-3.922zm8.043 5.234v-9.672h1.469v1.47q.562-1.032 1.03-1.36.485-.328 1.063-.328.829 0 1.688.53l-.563 1.517q-.609-.36-1.203-.36-.547 0-.968.328-.422.328-.61.89-.281.876-.281 1.923v5.062h-1.625zm12.54-1.187q-.921.765-1.765 1.094-.828.312-1.797.312-1.594 0-2.453-.781-.86-.781-.86-1.985 0-.718.329-1.296.328-.594.844-.938.53-.36 1.187-.547.469-.125 1.453-.25 1.985-.234 2.922-.562.016-.344.016-.422 0-1-.469-1.422-.625-.547-1.875-.547-1.156 0-1.703.406-.547.407-.813 1.422l-1.609-.219q.219-1.015.719-1.64.5-.64 1.453-.985.953-.343 2.187-.343 1.25 0 2.016.297.781.28 1.14.734.376.437.516 1.11.078.421.078 1.515v2.187q0 2.282.11 2.891.11.594.406 1.156h-1.703q-.266-.515-.328-1.187zm-.14-3.672q-.89.375-2.672.625-1.015.14-1.437.328-.422.188-.657.531-.218.344-.218.782 0 .656.5 1.093.5.438 1.453.438.937 0 1.672-.406.75-.422 1.093-1.141.266-.563.266-1.64v-.61zm4.204 8.562v-13.375h1.484v1.25q.532-.734 1.188-1.093.672-.375 1.625-.375 1.234 0 2.172.64.953.625 1.437 1.797.485 1.156.485 2.547 0 1.484-.532 2.672-.531 1.187-1.547 1.828-1.015.625-2.14.625-.813 0-1.469-.344-.656-.343-1.062-.875v4.703h-1.641zm1.484-8.484q0 1.86.75 2.766.766.89 1.828.89 1.094 0 1.875-.922.782-.937.782-2.875 0-1.843-.766-2.765-.75-.922-1.812-.922-1.047 0-1.86.984-.797.97-.797 2.844zm8.892 4.781v-13.36h1.64v4.798q1.14-1.328 2.89-1.328 1.079 0 1.86.422.797.421 1.14 1.171.345.75.345 2.172v6.125h-1.641v-6.125q0-1.234-.531-1.797-.532-.562-1.516-.562-.719 0-1.36.39-.64.376-.921 1.016-.266.64-.266 1.781v5.297h-1.64z"/><path fill="none" d="M647.289 188.35h26.74v33.416h26.74"/><path stroke="#b7b7b7" stroke-linejoin="round" stroke-linecap="butt" d="M647.289 188.35h26.74v33.416h26.74"/><path fill="none" d="M647.289 188.35h26.74v.062h26.74"/><path stroke="#b7b7b7" stroke-linejoin="round" stroke-linecap="butt" d="M647.289 188.35h26.74v.062h26.74"/><path fill="none" d="M719.037 177.179c0-3.085 2.5-5.586 5.585-5.586h112.955a5.585 5.585 0 0 1 5.586 5.586v22.34c0 3.085-2.501 5.586-5.586 5.586H724.622a5.585 5.585 0 0 1-5.585-5.585z"/><path fill="#000" d="M737.235 189.648q0 1.765-.828 2.844-.812 1.078-2.187 1.078-1.47 0-2.266-1.032l-.063.891h-1.218v-11H732v4.11q.797-1 2.203-1 1.422 0 2.219 1.078.812 1.062.812 2.906v.125zm-1.328-.156q0-1.344-.531-2.079-.516-.75-1.5-.75-1.313 0-1.875 1.22v3.343q.61 1.219 1.89 1.219.954 0 1.485-.735.531-.734.531-2.218zm4.426 3.937h-1.328v-11h1.328v11zm1.775-3.937q0-1.141.438-2.047.453-.922 1.25-1.407.797-.5 1.828-.5 1.578 0 2.547 1.094.984 1.094.984 2.922v.094q0 1.125-.437 2.031-.438.89-1.25 1.39-.797.5-1.844.5-1.563 0-2.547-1.093-.969-1.094-.969-2.89v-.094zm1.328.156q0 1.281.594 2.062.594.782 1.594.782 1.016 0 1.61-.782.593-.797.593-2.218 0-1.282-.61-2.063-.593-.797-1.593-.797-.984 0-1.594.781-.594.782-.594 2.235zm10.484 2.844q.703 0 1.234-.422.532-.438.594-1.078h1.25q-.031.656-.453 1.265-.422.594-1.14.953-.704.36-1.485.36-1.578 0-2.516-1.047-.937-1.063-.937-2.89v-.22q0-1.14.406-2.015.422-.875 1.203-1.36.782-.5 1.828-.5 1.313 0 2.172.782.86.781.922 2.031h-1.25q-.062-.75-.578-1.234-.5-.485-1.266-.485-1 0-1.562.735-.547.718-.547 2.093v.25q0 1.328.547 2.063.547.719 1.578.719zm6.719-2.641l-.829.86v2.718h-1.312v-11h1.312v6.656l.72-.859 2.405-2.547h1.61l-3.016 3.234 3.36 4.516h-1.547l-2.703-3.578zm6.71 3.578h-1.329v-7.75h1.328v7.75zm-1.423-9.797q0-.328.188-.547.203-.218.578-.218.39 0 .594.218.203.22.203.547 0 .328-.203.547-.203.203-.594.203-.375 0-.578-.203-.188-.219-.188-.547zm4.791 2.047l.047.984q.89-1.125 2.313-1.125 2.468 0 2.484 2.782v5.11h-1.328v-5.126q0-.844-.375-1.234-.375-.407-1.172-.407-.64 0-1.14.344-.485.344-.75.906v5.516h-1.329v-7.75h1.25zm6.525 3.813q0-1.813.828-2.875.843-1.079 2.234-1.079 1.406 0 2.203 1l.063-.859h1.218v7.563q0 1.5-.89 2.359-.89.875-2.406.875-.829 0-1.641-.36-.797-.359-1.219-.984l.688-.781q.86 1.047 2.078 1.047.969 0 1.5-.547.547-.547.547-1.531v-.657q-.782.907-2.157.907-1.359 0-2.203-1.094-.843-1.094-.843-2.984zm1.328.156q0 1.312.531 2.062.547.735 1.516.735 1.25 0 1.828-1.14v-3.532q-.61-1.11-1.813-1.11-.969 0-1.515.75-.547.75-.547 2.235zm7.238 3.094q0-.344.203-.579.203-.234.61-.234.406 0 .609.234.219.235.219.579 0 .328-.22.546-.202.22-.609.22-.406 0-.609-.22-.203-.218-.203-.546zm6.935-.25q.704 0 1.235-.422.531-.438.594-1.078h1.25q-.032.656-.454 1.265-.421.594-1.14.953-.703.36-1.485.36-1.578 0-2.515-1.047-.938-1.063-.938-2.89v-.22q0-1.14.407-2.015.421-.875 1.203-1.36.78-.5 1.828-.5 1.312 0 2.172.782.859.781.922 2.031h-1.25q-.063-.75-.579-1.234-.5-.485-1.265-.485-1 0-1.563.735-.547.718-.547 2.093v.25q0 1.328.547 2.063.547.719 1.578.719zm9.078-1.11q0-.547-.406-.844-.406-.296-1.422-.5-1-.218-1.594-.515-.578-.313-.875-.719-.28-.422-.28-1 0-.937.812-1.594.812-.672 2.062-.672 1.313 0 2.125.688.828.672.828 1.734h-1.328q0-.547-.469-.937-.453-.39-1.156-.39-.734 0-1.14.312-.407.312-.407.828 0 .469.375.719.39.25 1.375.468 1 .22 1.61.532.609.296.906.734.297.437.297 1.062 0 1.032-.828 1.657t-2.157.625q-.921 0-1.64-.328-.719-.329-1.125-.922-.39-.594-.39-1.282h1.312q.047.672.53 1.063.5.39 1.313.39.75 0 1.204-.296.468-.313.468-.813zm7.557 0q0-.547-.406-.844-.406-.296-1.422-.5-1-.218-1.593-.515-.579-.313-.875-.719-.282-.422-.282-1 0-.937.813-1.594.812-.672 2.062-.672 1.313 0 2.125.688.828.672.828 1.734H809.3q0-.547-.468-.937-.454-.39-1.157-.39-.734 0-1.14.312-.407.312-.407.828 0 .469.375.719.391.25 1.375.468 1 .22 1.61.532.61.296.906.734.297.437.297 1.062 0 1.032-.828 1.657t-2.156.625q-.922 0-1.641-.328-.719-.329-1.125-.922-.39-.594-.39-1.282h1.312q.047.672.531 1.063.5.39 1.313.39.75 0 1.203-.296.468-.313.468-.813z"/><path fill="#90f" d="M700.769 188.35a9.134 9.134 0 1 1 18.268 0 9.134 9.134 0 0 1-18.268 0z" fill-rule="evenodd"/><path fill="none" d="M528.176 177.179c0-3.085 2.5-5.586 5.585-5.586h89.05a5.585 5.585 0 0 1 5.585 5.586v22.34c0 3.085-2.5 5.586-5.585 5.586h-89.05a5.585 5.585 0 0 1-5.585-5.585z"/><path fill="#000" d="M552.14 193.43h-1.327v-7.75h1.328v7.75zm-1.421-9.798q0-.328.187-.547.204-.218.579-.218.39 0 .593.218.203.22.203.547 0 .328-.203.547-.203.203-.593.203-.375 0-.579-.203-.187-.219-.187-.547zm4.791 2.047l.047.984q.89-1.125 2.312-1.125 2.47 0 2.485 2.782v5.11h-1.328v-5.126q0-.844-.375-1.234-.375-.407-1.172-.407-.64 0-1.14.344-.485.344-.75.906v5.516h-1.329v-7.75h1.25zm6.524 3.813q0-1.782.844-2.86.844-1.094 2.203-1.094 1.36 0 2.156.938v-4.047h1.328v11h-1.218l-.063-.828q-.797.969-2.219.969-1.343 0-2.187-1.094-.844-1.11-.844-2.875v-.11zm1.313.156q0 1.312.547 2.062.546.735 1.5.735 1.265 0 1.843-1.125v-3.563q-.593-1.094-1.828-1.094-.969 0-1.515.75-.547.75-.547 2.235zm10.484 3.922q-1.578 0-2.562-1.032-.985-1.03-.985-2.765v-.25q0-1.14.438-2.047.437-.906 1.218-1.422.797-.516 1.72-.516 1.515 0 2.343 1 .844 1 .844 2.844v.547h-5.25q.031 1.156.672 1.86.64.703 1.625.703.703 0 1.187-.282.5-.297.86-.765l.812.625q-.984 1.5-2.922 1.5zm-.172-6.938q-.797 0-1.344.594-.546.578-.671 1.625h3.875v-.11q-.047-1-.547-1.546-.485-.563-1.313-.563zm7.312 1.875l1.719-2.828h1.546l-2.53 3.828 2.609 3.922h-1.532l-1.781-2.89-1.797 2.89h-1.531l2.61-3.922-2.532-3.828h1.531l1.688 2.828zm4.701 4.235q0-.344.203-.579.203-.234.61-.234.406 0 .609.234.219.235.219.579 0 .328-.22.546-.202.22-.609.22-.406 0-.609-.22-.203-.218-.203-.546zm5.154-6.125q.875-1.079 2.281-1.079 2.47 0 2.485 2.782v5.11h-1.328v-5.126q0-.844-.375-1.234-.375-.407-1.172-.407-.64 0-1.14.344-.485.344-.75.906v5.516h-1.329v-11h1.328v4.188zm8.541-2.813v1.875h1.453v1.031h-1.453v4.797q0 .469.188.703.203.235.672.235.218 0 .625-.094v1.078q-.532.14-1.016.14-.89 0-1.344-.53-.453-.547-.453-1.532v-4.797h-1.406v-1.03h1.406v-1.876h1.328zm4.241 1.875l.031.86q.86-1 2.297-1 1.625 0 2.219 1.25.375-.563 1-.907.625-.344 1.469-.344 2.547 0 2.578 2.704v5.187h-1.313v-5.11q0-.827-.39-1.234-.375-.422-1.266-.422-.734 0-1.234.454-.485.437-.563 1.171v5.141h-1.328v-5.078q0-1.688-1.656-1.688-1.297 0-1.781 1.11v5.656h-1.313v-7.75h1.25zm13.033 7.75h-1.328v-11h1.328v11z"/><path fill="#4285f4" d="M629.021 188.35a9.134 9.134 0 1 1 18.268 0 9.134 9.134 0 0 1-18.268 0z" fill-rule="evenodd"/><path fill="none" d="M719.037 210.609c0-3.085 2.5-5.585 5.585-5.585h112.955a5.585 5.585 0 0 1 5.586 5.585v22.341c0 3.085-2.501 5.585-5.586 5.585H724.622a5.585 5.585 0 0 1-5.585-5.585z"/><path fill="#000" d="M737.235 223.078q0 1.766-.828 2.844-.812 1.078-2.187 1.078-1.47 0-2.266-1.031l-.063.89h-1.218v-11H732v4.11q.797-1 2.203-1 1.422 0 2.219 1.078.812 1.063.812 2.906v.125zm-1.328-.156q0-1.344-.531-2.078-.516-.75-1.5-.75-1.313 0-1.875 1.219v3.343q.61 1.22 1.89 1.22.954 0 1.485-.735.531-.735.531-2.219zm4.426 3.938h-1.328v-11h1.328v11zm1.775-3.938q0-1.14.438-2.047.453-.922 1.25-1.406.797-.5 1.828-.5 1.578 0 2.547 1.094.984 1.093.984 2.922v.093q0 1.125-.437 2.032-.438.89-1.25 1.39-.797.5-1.844.5-1.563 0-2.547-1.094-.969-1.093-.969-2.89v-.094zm1.328.156q0 1.282.594 2.063.594.781 1.594.781 1.016 0 1.61-.781.593-.797.593-2.219 0-1.281-.61-2.062-.593-.797-1.593-.797-.984 0-1.594.78-.594.782-.594 2.235zm10.484 2.844q.703 0 1.234-.422.532-.437.594-1.078h1.25q-.031.656-.453 1.266-.422.593-1.14.953-.704.36-1.485.36-1.578 0-2.516-1.048-.937-1.062-.937-2.89v-.22q0-1.14.406-2.015.422-.875 1.203-1.36.782-.5 1.828-.5 1.313 0 2.172.782.86.781.922 2.031h-1.25q-.062-.75-.578-1.234-.5-.484-1.266-.484-1 0-1.562.734-.547.719-.547 2.094v.25q0 1.328.547 2.062.547.719 1.578.719zm6.719-2.64l-.829.859v2.719h-1.312v-11h1.312v6.656l.72-.86 2.405-2.546h1.61l-3.016 3.234 3.36 4.516h-1.547l-2.703-3.579zm6.71 3.578h-1.329v-7.75h1.328v7.75zm-1.423-9.797q0-.328.188-.547.203-.219.578-.219.39 0 .594.219.203.219.203.547 0 .328-.203.547-.203.203-.594.203-.375 0-.578-.203-.188-.22-.188-.547zm4.791 2.047l.047.984q.89-1.125 2.313-1.125 2.468 0 2.484 2.781v5.11h-1.328v-5.125q0-.844-.375-1.235-.375-.406-1.172-.406-.64 0-1.14.344-.485.343-.75.906v5.516h-1.329v-7.75h1.25zm6.525 3.812q0-1.812.828-2.875.843-1.078 2.234-1.078 1.406 0 2.203 1l.063-.86h1.218v7.563q0 1.5-.89 2.36-.89.874-2.406.874-.829 0-1.641-.359-.797-.36-1.219-.984l.688-.782q.86 1.047 2.078 1.047.969 0 1.5-.547.547-.546.547-1.53v-.657q-.782.906-2.157.906-1.359 0-2.203-1.094-.843-1.093-.843-2.984zm1.328.156q0 1.313.531 2.063.547.734 1.516.734 1.25 0 1.828-1.14v-3.532q-.61-1.11-1.813-1.11-.969 0-1.515.75-.547.75-.547 2.235zm7.238 3.094q0-.344.203-.578.203-.234.61-.234.406 0 .609.234.219.234.219.578 0 .328-.22.547-.202.219-.609.219-.406 0-.609-.22-.203-.218-.203-.546zm5.201-7.062v8.64q0 2.235-2.031 2.235-.438 0-.813-.125v-1.063q.235.063.61.063.437 0 .672-.25.234-.235.234-.829v-8.671h1.328zm-1.469-2.047q0-.313.188-.532.203-.234.594-.234.375 0 .578.219.203.219.203.547 0 .328-.203.547-.203.203-.594.203-.375 0-.578-.203-.188-.22-.188-.547zm8.11 7.75q0-.547-.407-.844-.406-.297-1.422-.5-1-.219-1.594-.516-.578-.312-.875-.718-.281-.422-.281-1 0-.938.812-1.594.813-.672 2.063-.672 1.312 0 2.125.687.828.672.828 1.735h-1.328q0-.547-.469-.938-.453-.39-1.156-.39-.734 0-1.14.312-.407.313-.407.828 0 .469.375.719.39.25 1.375.469 1 .219 1.61.531.609.297.906.734.297.438.297 1.063 0 1.031-.829 1.656-.828.625-2.156.625-.922 0-1.64-.328-.72-.328-1.125-.922-.391-.594-.391-1.281h1.312q.047.672.532 1.062.5.391 1.312.391.75 0 1.203-.297.47-.312.47-.812z"/><path fill="#fbbc05" d="M700.769 221.78a9.134 9.134 0 1 1 18.268 0 9.134 9.134 0 0 1-18.268 0z" fill-rule="evenodd"/><path fill="none" d="M748.882 241.528c0-3.085 2.5-5.586 5.585-5.586h135.948a5.585 5.585 0 0 1 5.585 5.586v22.34c0 3.085-2.5 5.586-5.585 5.586H754.467a5.585 5.585 0 0 1-5.585-5.585z"/><path fill="#000" d="M768.393 254.466q-.188 1.656-1.219 2.562-1.031.89-2.734.89-1.844 0-2.953-1.312-1.11-1.328-1.11-3.547v-1q0-1.453.516-2.546.515-1.11 1.469-1.704.953-.593 2.203-.593 1.656 0 2.656.937 1 .922 1.172 2.547h-1.375q-.188-1.234-.781-1.797-.594-.562-1.672-.562-1.313 0-2.063.984-.75.969-.75 2.766v1q0 1.703.703 2.703.719 1 1.985 1 1.14 0 1.75-.516.625-.515.828-1.812h1.375zm3.242-.766v4.078h-1.375v-10.422h3.844q1.719 0 2.688.875.968.875.968 2.313 0 1.515-.953 2.344-.937.812-2.719.812h-2.453zm0-1.125h2.47q1.108 0 1.687-.516.593-.515.593-1.5 0-.937-.593-1.484-.579-.562-1.61-.578h-2.547v4.078zm15.215-5.219v7.094q-.015 1.469-.937 2.406-.907.938-2.485 1.047l-.36.016q-1.718 0-2.733-.922-1.016-.922-1.032-2.547v-7.094h1.36v7.063q0 1.125.625 1.75t1.78.625q1.157 0 1.767-.61.625-.625.625-1.765v-7.063h1.39zm7.382.797v1.875h1.453v1.031h-1.453v4.797q0 .469.188.703.203.235.671.235.22 0 .625-.094v1.078q-.53.14-1.015.14-.89 0-1.344-.53-.453-.547-.453-1.532v-4.797h-1.406v-1.03h1.406v-1.876h1.328zm7.772 9.625q-.11-.234-.187-.812-.922.953-2.204.953-1.14 0-1.875-.64-.734-.657-.734-1.641 0-1.22.922-1.875.922-.672 2.578-.672h1.297v-.61q0-.703-.422-1.11-.406-.405-1.219-.405-.703 0-1.187.359-.485.344-.485.86h-1.328q0-.579.407-1.11.421-.547 1.125-.86.703-.327 1.546-.327 1.344 0 2.094.671.766.672.797 1.844v3.563q0 1.062.266 1.703v.11h-1.39zm-2.203-1.015q.625 0 1.187-.313.563-.328.813-.844v-1.578h-1.047q-2.422 0-2.422 1.422 0 .625.406.969.422.344 1.063.344zm9.91-1.032q0-.547-.407-.843-.406-.297-1.422-.5-1-.22-1.593-.516-.578-.313-.875-.719-.282-.422-.282-1 0-.937.813-1.594.812-.671 2.062-.671 1.313 0 2.125.687.829.672.829 1.734h-1.329q0-.546-.468-.937-.453-.39-1.157-.39-.734 0-1.14.312-.406.312-.406.828 0 .469.375.719.39.25 1.375.468 1 .22 1.609.532.61.297.906.734.297.438.297 1.063 0 1.03-.828 1.656-.828.625-2.156.625-.922 0-1.64-.328-.72-.328-1.126-.922-.39-.594-.39-1.281h1.312q.047.671.531 1.062.5.39 1.313.39.75 0 1.203-.296.469-.313.469-.813zm5.197-1.531l-.828.86v2.718h-1.312v-11h1.312v6.656l.719-.859 2.406-2.547h1.61l-3.016 3.235 3.36 4.515h-1.548l-2.703-3.578z"/><path fill="#fbbc05" d="M730.614 252.698a9.134 9.134 0 1 1 18.268 0 9.134 9.134 0 0 1-18.268 0z" fill-rule="evenodd"/><path stroke="#000" stroke-linejoin="round" stroke-linecap="butt" d="M730.614 252.698a9.134 9.134 0 1 1 18.268 0 9.134 9.134 0 0 1-18.268 0z"/><path fill="none" d="M709.903 230.913v21.796h20.724"/><path stroke="#b7b7b7" stroke-linejoin="round" stroke-linecap="butt" d="M709.903 230.913v21.796h20.724"/><path fill="none" d="M647.289 356.35h26.74v33.416h26.74"/><path stroke="#b7b7b7" stroke-linejoin="round" stroke-linecap="butt" d="M647.289 356.35h26.74v33.416h26.74"/><path fill="none" d="M647.289 356.35h26.74v.062h26.74"/><path stroke="#b7b7b7" stroke-linejoin="round" stroke-linecap="butt" d="M647.289 356.35h26.74v.062h26.74"/><path fill="none" d="M709.903 398.913v53.796h20.724"/><path stroke="#b7b7b7" stroke-linejoin="round" stroke-linecap="butt" d="M709.903 398.913v53.796h20.724"/><path fill="none" d="M719.037 345.179c0-3.085 2.5-5.586 5.585-5.586h112.955a5.585 5.585 0 0 1 5.586 5.586v22.34c0 3.085-2.501 5.586-5.586 5.586H724.622a5.585 5.585 0 0 1-5.585-5.585z"/><path fill="#000" d="M737.235 357.648q0 1.765-.828 2.844-.812 1.078-2.187 1.078-1.47 0-2.266-1.032l-.063.891h-1.218v-11H732v4.11q.797-1 2.203-1 1.422 0 2.219 1.078.812 1.062.812 2.906v.125zm-1.328-.156q0-1.344-.531-2.079-.516-.75-1.5-.75-1.313 0-1.875 1.22v3.343q.61 1.219 1.89 1.219.954 0 1.485-.735.531-.734.531-2.218zm4.426 3.937h-1.328v-11h1.328v11zm1.775-3.937q0-1.141.438-2.047.453-.922 1.25-1.407.797-.5 1.828-.5 1.578 0 2.547 1.094.984 1.094.984 2.922v.094q0 1.125-.437 2.031-.438.89-1.25 1.39-.797.5-1.844.5-1.563 0-2.547-1.093-.969-1.094-.969-2.89v-.094zm1.328.156q0 1.281.594 2.062.594.782 1.594.782 1.016 0 1.61-.782.593-.797.593-2.218 0-1.282-.61-2.063-.593-.797-1.593-.797-.984 0-1.594.781-.594.782-.594 2.235zm10.484 2.844q.703 0 1.234-.422.532-.438.594-1.078h1.25q-.031.656-.453 1.265-.422.594-1.14.953-.704.36-1.485.36-1.578 0-2.516-1.047-.937-1.063-.937-2.89v-.22q0-1.14.406-2.015.422-.875 1.203-1.36.782-.5 1.828-.5 1.313 0 2.172.782.86.781.922 2.031h-1.25q-.062-.75-.578-1.234-.5-.485-1.266-.485-1 0-1.562.735-.547.718-.547 2.093v.25q0 1.328.547 2.063.547.719 1.578.719zm6.719-2.641l-.829.86v2.718h-1.312v-11h1.312v6.656l.72-.859 2.405-2.547h1.61l-3.016 3.234 3.36 4.516h-1.547l-2.703-3.578zm6.71 3.578h-1.329v-7.75h1.328v7.75zm-1.423-9.797q0-.328.188-.547.203-.218.578-.218.39 0 .594.218.203.22.203.547 0 .328-.203.547-.203.203-.594.203-.375 0-.578-.203-.188-.219-.188-.547zm4.791 2.047l.047.984q.89-1.125 2.313-1.125 2.468 0 2.484 2.782v5.11h-1.328v-5.126q0-.844-.375-1.234-.375-.407-1.172-.407-.64 0-1.14.344-.485.344-.75.906v5.516h-1.329v-7.75h1.25zm6.525 3.813q0-1.813.828-2.875.843-1.079 2.234-1.079 1.406 0 2.203 1l.063-.859h1.218v7.563q0 1.5-.89 2.359-.89.875-2.406.875-.829 0-1.641-.36-.797-.359-1.219-.984l.688-.781q.86 1.047 2.078 1.047.969 0 1.5-.547.547-.547.547-1.531v-.657q-.782.907-2.157.907-1.359 0-2.203-1.094-.843-1.094-.843-2.984zm1.328.156q0 1.312.531 2.062.547.735 1.516.735 1.25 0 1.828-1.14v-3.532q-.61-1.11-1.813-1.11-.969 0-1.515.75-.547.75-.547 2.235zm7.238 3.094q0-.344.203-.579.203-.234.61-.234.406 0 .609.234.219.235.219.579 0 .328-.22.546-.202.22-.609.22-.406 0-.609-.22-.203-.218-.203-.546zm6.935-.25q.704 0 1.235-.422.531-.438.594-1.078h1.25q-.032.656-.454 1.265-.421.594-1.14.953-.703.36-1.485.36-1.578 0-2.515-1.047-.938-1.063-.938-2.89v-.22q0-1.14.407-2.015.421-.875 1.203-1.36.78-.5 1.828-.5 1.312 0 2.172.782.859.781.922 2.031h-1.25q-.063-.75-.579-1.234-.5-.485-1.265-.485-1 0-1.563.735-.547.718-.547 2.093v.25q0 1.328.547 2.063.547.719 1.578.719zm9.078-1.11q0-.547-.406-.844-.406-.296-1.422-.5-1-.218-1.594-.515-.578-.313-.875-.719-.28-.422-.28-1 0-.937.812-1.594.812-.672 2.062-.672 1.313 0 2.125.688.828.672.828 1.734h-1.328q0-.547-.469-.937-.453-.39-1.156-.39-.734 0-1.14.312-.407.312-.407.828 0 .469.375.719.39.25 1.375.468 1 .22 1.61.532.609.296.906.734.297.437.297 1.062 0 1.032-.828 1.657t-2.157.625q-.921 0-1.64-.328-.719-.329-1.125-.922-.39-.594-.39-1.282h1.312q.047.672.53 1.063.5.39 1.313.39.75 0 1.204-.296.468-.313.468-.813zm7.557 0q0-.547-.406-.844-.406-.296-1.422-.5-1-.218-1.593-.515-.579-.313-.875-.719-.282-.422-.282-1 0-.937.813-1.594.812-.672 2.062-.672 1.313 0 2.125.688.828.672.828 1.734H809.3q0-.547-.468-.937-.454-.39-1.157-.39-.734 0-1.14.312-.407.312-.407.828 0 .469.375.719.391.25 1.375.468 1 .22 1.61.532.61.296.906.734.297.437.297 1.062 0 1.032-.828 1.657t-2.156.625q-.922 0-1.641-.328-.719-.329-1.125-.922-.39-.594-.39-1.282h1.312q.047.672.531 1.063.5.39 1.313.39.75 0 1.203-.296.468-.313.468-.813z"/><path fill="#90f" d="M700.769 356.35a9.134 9.134 0 1 1 18.268 0 9.134 9.134 0 1 1-18.268 0z" fill-rule="evenodd"/><path fill="none" d="M528.176 345.179c0-3.085 2.5-5.586 5.585-5.586h89.05a5.585 5.585 0 0 1 5.585 5.586v22.34c0 3.085-2.5 5.586-5.585 5.586h-89.05a5.585 5.585 0 0 1-5.585-5.585z"/><path fill="#000" d="M552.14 361.43h-1.327v-7.75h1.328v7.75zm-1.421-9.798q0-.328.187-.547.204-.218.579-.218.39 0 .593.218.203.22.203.547 0 .328-.203.547-.203.203-.593.203-.375 0-.579-.203-.187-.219-.187-.547zm4.791 2.047l.047.984q.89-1.125 2.312-1.125 2.47 0 2.485 2.782v5.11h-1.328v-5.126q0-.844-.375-1.234-.375-.407-1.172-.407-.64 0-1.14.344-.485.344-.75.906v5.516h-1.329v-7.75h1.25zm6.524 3.813q0-1.782.844-2.86.844-1.094 2.203-1.094 1.36 0 2.156.938v-4.047h1.328v11h-1.218l-.063-.828q-.797.969-2.219.969-1.343 0-2.187-1.094-.844-1.11-.844-2.875v-.11zm1.313.156q0 1.312.547 2.062.546.735 1.5.735 1.265 0 1.843-1.125v-3.563q-.593-1.094-1.828-1.094-.969 0-1.515.75-.547.75-.547 2.235zm10.484 3.922q-1.578 0-2.562-1.032-.985-1.03-.985-2.765v-.25q0-1.14.438-2.047.437-.906 1.218-1.422.797-.516 1.72-.516 1.515 0 2.343 1 .844 1 .844 2.844v.547h-5.25q.031 1.156.672 1.86.64.703 1.625.703.703 0 1.187-.282.5-.297.86-.765l.812.625q-.984 1.5-2.922 1.5zm-.172-6.938q-.797 0-1.344.594-.546.578-.671 1.625h3.875v-.11q-.047-1-.547-1.546-.485-.563-1.313-.563zm7.312 1.875l1.719-2.828h1.546l-2.53 3.828 2.609 3.922h-1.532l-1.781-2.89-1.797 2.89h-1.531l2.61-3.922-2.532-3.828h1.531l1.688 2.828zm4.701 4.235q0-.344.203-.579.203-.234.61-.234.406 0 .609.234.219.235.219.579 0 .328-.22.546-.202.22-.609.22-.406 0-.609-.22-.203-.218-.203-.546zm5.154-6.125q.875-1.079 2.281-1.079 2.47 0 2.485 2.782v5.11h-1.328v-5.126q0-.844-.375-1.234-.375-.407-1.172-.407-.64 0-1.14.344-.485.344-.75.906v5.516h-1.329v-11h1.328v4.188zm8.541-2.813v1.875h1.453v1.031h-1.453v4.797q0 .469.188.703.203.235.672.235.218 0 .625-.094v1.078q-.532.14-1.016.14-.89 0-1.344-.53-.453-.547-.453-1.532v-4.797h-1.406v-1.03h1.406v-1.876h1.328zm4.241 1.875l.031.86q.86-1 2.297-1 1.625 0 2.219 1.25.375-.563 1-.907.625-.344 1.469-.344 2.547 0 2.578 2.704v5.187h-1.313v-5.11q0-.827-.39-1.234-.375-.422-1.266-.422-.734 0-1.234.454-.485.437-.563 1.171v5.141h-1.328v-5.078q0-1.688-1.656-1.688-1.297 0-1.781 1.11v5.656h-1.313v-7.75h1.25zm13.033 7.75h-1.328v-11h1.328v11z"/><path fill="#4285f4" d="M629.021 356.35a9.134 9.134 0 1 1 18.268 0 9.134 9.134 0 1 1-18.268 0z" fill-rule="evenodd"/><path fill="none" d="M719.037 378.609c0-3.085 2.5-5.585 5.585-5.585h112.955a5.585 5.585 0 0 1 5.586 5.585v22.341c0 3.085-2.501 5.585-5.586 5.585H724.622a5.585 5.585 0 0 1-5.585-5.585z"/><path fill="#000" d="M737.235 391.078q0 1.766-.828 2.844-.812 1.078-2.187 1.078-1.47 0-2.266-1.031l-.063.89h-1.218v-11H732v4.11q.797-1 2.203-1 1.422 0 2.219 1.078.812 1.063.812 2.906v.125zm-1.328-.156q0-1.344-.531-2.078-.516-.75-1.5-.75-1.313 0-1.875 1.219v3.343q.61 1.22 1.89 1.22.954 0 1.485-.735.531-.735.531-2.219zm4.426 3.938h-1.328v-11h1.328v11zm1.775-3.938q0-1.14.438-2.047.453-.922 1.25-1.406.797-.5 1.828-.5 1.578 0 2.547 1.094.984 1.093.984 2.922v.093q0 1.125-.437 2.032-.438.89-1.25 1.39-.797.5-1.844.5-1.563 0-2.547-1.094-.969-1.093-.969-2.89v-.094zm1.328.156q0 1.282.594 2.063.594.781 1.594.781 1.016 0 1.61-.781.593-.797.593-2.219 0-1.281-.61-2.062-.593-.797-1.593-.797-.984 0-1.594.78-.594.782-.594 2.235zm10.484 2.844q.703 0 1.234-.422.532-.437.594-1.078h1.25q-.031.656-.453 1.266-.422.593-1.14.953-.704.36-1.485.36-1.578 0-2.516-1.048-.937-1.062-.937-2.89v-.22q0-1.14.406-2.015.422-.875 1.203-1.36.782-.5 1.828-.5 1.313 0 2.172.782.86.781.922 2.031h-1.25q-.062-.75-.578-1.234-.5-.484-1.266-.484-1 0-1.562.734-.547.719-.547 2.094v.25q0 1.328.547 2.062.547.719 1.578.719zm6.719-2.64l-.829.859v2.719h-1.312v-11h1.312v6.656l.72-.86 2.405-2.546h1.61l-3.016 3.234 3.36 4.516h-1.547l-2.703-3.579zm6.71 3.578h-1.329v-7.75h1.328v7.75zm-1.423-9.797q0-.328.188-.547.203-.219.578-.219.39 0 .594.219.203.219.203.547 0 .328-.203.547-.203.203-.594.203-.375 0-.578-.203-.188-.22-.188-.547zm4.791 2.047l.047.984q.89-1.125 2.313-1.125 2.468 0 2.484 2.781v5.11h-1.328v-5.125q0-.844-.375-1.235-.375-.406-1.172-.406-.64 0-1.14.344-.485.343-.75.906v5.516h-1.329v-7.75h1.25zm6.525 3.812q0-1.812.828-2.875.843-1.078 2.234-1.078 1.406 0 2.203 1l.063-.86h1.218v7.563q0 1.5-.89 2.36-.89.874-2.406.874-.829 0-1.641-.359-.797-.36-1.219-.984l.688-.782q.86 1.047 2.078 1.047.969 0 1.5-.547.547-.546.547-1.53v-.657q-.782.906-2.157.906-1.359 0-2.203-1.094-.843-1.093-.843-2.984zm1.328.156q0 1.313.531 2.063.547.734 1.516.734 1.25 0 1.828-1.14v-3.532q-.61-1.11-1.813-1.11-.969 0-1.515.75-.547.75-.547 2.235zm7.238 3.094q0-.344.203-.578.203-.234.61-.234.406 0 .609.234.219.234.219.578 0 .328-.22.547-.202.219-.609.219-.406 0-.609-.22-.203-.218-.203-.546zm5.201-7.062v8.64q0 2.235-2.031 2.235-.438 0-.813-.125v-1.063q.235.063.61.063.437 0 .672-.25.234-.235.234-.829v-8.671h1.328zm-1.469-2.047q0-.313.188-.532.203-.234.594-.234.375 0 .578.219.203.219.203.547 0 .328-.203.547-.203.203-.594.203-.375 0-.578-.203-.188-.22-.188-.547zm8.11 7.75q0-.547-.407-.844-.406-.297-1.422-.5-1-.219-1.594-.516-.578-.312-.875-.718-.281-.422-.281-1 0-.938.812-1.594.813-.672 2.063-.672 1.312 0 2.125.687.828.672.828 1.735h-1.328q0-.547-.469-.938-.453-.39-1.156-.39-.734 0-1.14.312-.407.313-.407.828 0 .469.375.719.39.25 1.375.469 1 .219 1.61.531.609.297.906.734.297.438.297 1.063 0 1.031-.829 1.656-.828.625-2.156.625-.922 0-1.64-.328-.72-.328-1.125-.922-.391-.594-.391-1.281h1.312q.047.672.532 1.062.5.391 1.312.391.75 0 1.203-.297.47-.312.47-.812z"/><path fill="#fbbc05" d="M700.769 389.78a9.134 9.134 0 1 1 18.268 0 9.134 9.134 0 0 1-18.268 0z" fill-rule="evenodd"/><path fill="none" d="M748.882 441.528c0-3.085 2.5-5.586 5.585-5.586h135.948a5.585 5.585 0 0 1 5.585 5.586v22.34c0 3.085-2.5 5.586-5.585 5.586H754.467a5.585 5.585 0 0 1-5.585-5.585z"/><path fill="#000" d="M762.674 454.2l-.828.86v2.718h-1.313v-11h1.313v6.656l.719-.859 2.406-2.547h1.61l-3.016 3.235 3.36 4.515h-1.548l-2.703-3.578zm6.71 3.578h-1.328v-7.75h1.328v7.75zm-1.422-9.797q0-.328.187-.547.203-.218.578-.218.391 0 .594.218.203.22.203.547 0 .328-.203.547-.203.203-.594.203-.375 0-.578-.203-.187-.219-.187-.547zm4.79 2.047l.048.985q.89-1.125 2.312-1.125 2.469 0 2.485 2.78v5.11h-1.329v-5.125q0-.844-.375-1.234-.375-.406-1.171-.406-.641 0-1.141.343-.484.344-.75.907v5.515h-1.328v-7.75h1.25zm6.525 3.813q0-1.782.844-2.86.844-1.093 2.203-1.093 1.36 0 2.156.937v-4.047h1.328v11h-1.218l-.063-.828q-.797.969-2.219.969-1.343 0-2.187-1.094-.844-1.11-.844-2.875v-.11zm1.313.156q0 1.312.546 2.062.547.735 1.5.735 1.266 0 1.844-1.125v-3.563q-.594-1.093-1.828-1.093-.969 0-1.516.75-.546.75-.546 2.234zm12.046 3.781q-.109-.234-.187-.812-.922.953-2.203.953-1.14 0-1.875-.64-.735-.657-.735-1.641 0-1.22.922-1.875.922-.672 2.578-.672h1.297v-.61q0-.703-.422-1.11-.406-.405-1.218-.405-.703 0-1.188.359-.484.344-.484.86h-1.328q0-.579.406-1.11.422-.547 1.125-.86.703-.327 1.547-.327 1.344 0 2.094.671.765.672.796 1.844v3.563q0 1.062.266 1.703v.11h-1.39zm-2.203-1.015q.625 0 1.188-.313.562-.328.812-.844v-1.578h-1.047q-2.421 0-2.421 1.422 0 .625.406.969.422.344 1.062.344zm8.144-2.875h-3.484v-1.079h3.484v1.079zm7.856.109q0 1.766-.828 2.844-.812 1.078-2.187 1.078-1.47 0-2.266-1.031l-.063.89h-1.218v-11h1.328v4.11q.797-1 2.203-1 1.422 0 2.219 1.078.812 1.062.812 2.906v.125zm-1.328-.156q0-1.344-.531-2.078-.516-.75-1.5-.75-1.313 0-1.875 1.218v3.344q.61 1.219 1.89 1.219.954 0 1.485-.735.531-.734.531-2.218zm4.426 3.937h-1.328v-11h1.328v11zm1.775-3.937q0-1.141.438-2.047.453-.922 1.25-1.406.797-.5 1.828-.5 1.578 0 2.547 1.093.984 1.094.984 2.922v.094q0 1.125-.437 2.031-.438.89-1.25 1.39-.797.5-1.844.5-1.563 0-2.547-1.093-.969-1.094-.969-2.89v-.094zm1.328.156q0 1.281.594 2.062.594.782 1.594.782 1.016 0 1.61-.782.593-.796.593-2.218 0-1.282-.61-2.063-.593-.797-1.593-.797-.984 0-1.594.782-.594.78-.594 2.234zm10.484 2.844q.703 0 1.235-.422.53-.438.593-1.078h1.25q-.031.656-.453 1.265-.422.594-1.14.953-.704.36-1.485.36-1.578 0-2.515-1.047-.938-1.063-.938-2.89v-.22q0-1.14.406-2.015.422-.875 1.203-1.36.782-.5 1.829-.5 1.312 0 2.171.782.86.781.922 2.031h-1.25q-.062-.75-.578-1.234-.5-.485-1.265-.485-1 0-1.563.735-.547.718-.547 2.093v.25q0 1.329.547 2.063.547.719 1.578.719zm6.719-2.641l-.828.86v2.718h-1.313v-11h1.313v6.656l.718-.859 2.407-2.547h1.609l-3.016 3.235 3.36 4.515h-1.547l-2.703-3.578zm6.71 3.578h-1.329v-7.75h1.328v7.75zm-1.423-9.797q0-.328.188-.547.203-.218.578-.218.39 0 .594.218.203.22.203.547 0 .328-.203.547-.203.203-.594.203-.375 0-.578-.203-.188-.219-.188-.547zm4.791 2.047l.047.985q.89-1.125 2.313-1.125 2.469 0 2.484 2.78v5.11h-1.328v-5.125q0-.844-.375-1.234-.375-.406-1.172-.406-.64 0-1.14.343-.485.344-.75.907v5.515h-1.329v-7.75h1.25zm6.525 3.813q0-1.813.828-2.875.843-1.078 2.234-1.078 1.406 0 2.203 1l.063-.86h1.218v7.563q0 1.5-.89 2.359-.89.875-2.406.875-.829 0-1.641-.36-.797-.359-1.219-.984l.688-.781q.86 1.047 2.078 1.047.969 0 1.5-.547.547-.547.547-1.531v-.656q-.782.906-2.157.906-1.359 0-2.203-1.094-.843-1.094-.843-2.984zm1.328.156q0 1.312.531 2.062.547.735 1.516.735 1.25 0 1.828-1.14v-3.532q-.61-1.11-1.813-1.11-.969 0-1.515.75-.547.75-.547 2.235zm7.238 3.094q0-.344.203-.578.203-.235.61-.235.406 0 .609.235.219.234.219.578 0 .328-.22.547-.202.218-.608.218-.407 0-.61-.218-.203-.22-.203-.547zm6.935-.25q.704 0 1.235-.422.531-.438.594-1.078h1.25q-.032.656-.454 1.265-.421.594-1.14.953-.703.36-1.485.36-1.578 0-2.515-1.047-.938-1.063-.938-2.89v-.22q0-1.14.407-2.015.421-.875 1.203-1.36.78-.5 1.828-.5 1.312 0 2.172.782.86.781.922 2.031h-1.25q-.063-.75-.579-1.234-.5-.485-1.265-.485-1 0-1.563.735-.547.718-.547 2.093v.25q0 1.329.547 2.063.547.719 1.578.719zm9.078-1.11q0-.547-.406-.843-.406-.297-1.422-.5-1-.22-1.594-.516-.578-.313-.875-.719-.28-.422-.28-1 0-.937.812-1.594.812-.671 2.062-.671 1.313 0 2.125.687.828.672.828 1.734h-1.328q0-.546-.469-.937-.453-.39-1.156-.39-.734 0-1.14.312-.407.312-.407.828 0 .469.375.719.39.25 1.375.468 1 .22 1.61.532.61.297.906.734.297.438.297 1.063 0 1.03-.828 1.656-.828.625-2.157.625-.921 0-1.64-.328-.719-.328-1.125-.922-.39-.594-.39-1.281h1.312q.047.671.53 1.062.5.39 1.313.39.75 0 1.204-.296.468-.313.468-.813zm7.557 0q0-.547-.406-.843-.406-.297-1.422-.5-1-.22-1.593-.516-.579-.313-.875-.719-.282-.422-.282-1 0-.937.813-1.594.812-.671 2.062-.671 1.313 0 2.125.687.828.672.828 1.734h-1.328q0-.546-.468-.937-.454-.39-1.157-.39-.734 0-1.14.312-.407.312-.407.828 0 .469.375.719.391.25 1.375.468 1 .22 1.61.532.61.297.906.734.297.438.297 1.063 0 1.03-.828 1.656-.828.625-2.156.625-.922 0-1.641-.328t-1.125-.922q-.39-.594-.39-1.281h1.312q.047.671.531 1.062.5.39 1.313.39.75 0 1.203-.296.468-.313.468-.813z"/><path fill="#90f" d="M730.614 452.698a9.134 9.134 0 1 1 18.268 0 9.134 9.134 0 0 1-18.268 0z" fill-rule="evenodd"/><path fill="none" d="M748.882 409.528c0-3.085 2.5-5.586 5.585-5.586h135.948a5.585 5.585 0 0 1 5.585 5.586v22.34c0 3.085-2.5 5.586-5.585 5.586H754.467a5.585 5.585 0 0 1-5.585-5.585z"/><path fill="#000" d="M768.393 422.466q-.188 1.656-1.219 2.562-1.031.89-2.734.89-1.844 0-2.953-1.312-1.11-1.328-1.11-3.547v-1q0-1.453.516-2.546.515-1.11 1.469-1.704.953-.593 2.203-.593 1.656 0 2.656.937 1 .922 1.172 2.547h-1.375q-.188-1.234-.781-1.797-.594-.562-1.672-.562-1.313 0-2.063.984-.75.969-.75 2.766v1q0 1.703.703 2.703.719 1 1.985 1 1.14 0 1.75-.516.625-.515.828-1.812h1.375zm3.242-.766v4.078h-1.375v-10.422h3.844q1.719 0 2.688.875.968.875.968 2.313 0 1.515-.953 2.344-.937.812-2.719.812h-2.453zm0-1.125h2.47q1.108 0 1.687-.516.593-.515.593-1.5 0-.937-.593-1.484-.579-.562-1.61-.578h-2.547v4.078zm15.215-5.219v7.094q-.015 1.469-.937 2.406-.907.938-2.485 1.047l-.36.016q-1.718 0-2.733-.922-1.016-.922-1.032-2.547v-7.094h1.36v7.063q0 1.125.625 1.75t1.78.625q1.157 0 1.767-.61.625-.625.625-1.765v-7.063h1.39zm7.382.797v1.875h1.453v1.031h-1.453v4.797q0 .469.188.703.203.235.671.235.22 0 .625-.094v1.078q-.53.14-1.015.14-.89 0-1.344-.53-.453-.547-.453-1.532v-4.797h-1.406v-1.03h1.406v-1.876h1.328zm7.772 9.625q-.11-.234-.187-.812-.922.953-2.204.953-1.14 0-1.875-.64-.734-.657-.734-1.641 0-1.22.922-1.875.922-.672 2.578-.672h1.297v-.61q0-.703-.422-1.11-.406-.405-1.219-.405-.703 0-1.187.359-.485.344-.485.86h-1.328q0-.579.407-1.11.421-.547 1.125-.86.703-.327 1.546-.327 1.344 0 2.094.671.766.672.797 1.844v3.563q0 1.062.266 1.703v.11h-1.39zm-2.203-1.015q.625 0 1.187-.313.563-.328.813-.844v-1.578h-1.047q-2.422 0-2.422 1.422 0 .625.406.969.422.344 1.063.344zm9.91-1.032q0-.547-.407-.843-.406-.297-1.422-.5-1-.22-1.593-.516-.578-.313-.875-.719-.282-.422-.282-1 0-.937.813-1.594.812-.671 2.062-.671 1.313 0 2.125.687.829.672.829 1.734h-1.329q0-.546-.468-.937-.453-.39-1.157-.39-.734 0-1.14.312-.406.312-.406.828 0 .469.375.719.39.25 1.375.468 1 .22 1.609.532.61.297.906.734.297.438.297 1.063 0 1.03-.828 1.656-.828.625-2.156.625-.922 0-1.64-.328-.72-.328-1.126-.922-.39-.594-.39-1.281h1.312q.047.671.531 1.062.5.39 1.313.39.75 0 1.203-.296.469-.313.469-.813zm5.197-1.531l-.828.86v2.718h-1.312v-11h1.312v6.656l.719-.859 2.406-2.547h1.61l-3.016 3.235 3.36 4.515h-1.548l-2.703-3.578z"/><path fill="#fbbc05" d="M730.614 420.698a9.134 9.134 0 1 1 18.268 0 9.134 9.134 0 0 1-18.268 0z" fill-rule="evenodd"/><path stroke="#000" stroke-linejoin="round" stroke-linecap="butt" d="M730.614 420.698a9.134 9.134 0 1 1 18.268 0 9.134 9.134 0 0 1-18.268 0z"/><path fill="none" d="M709.903 398.913v21.796h20.724"/><path stroke="#b7b7b7" stroke-linejoin="round" stroke-linecap="butt" d="M709.903 398.913v21.796h20.724"/><path fill="none" d="M538.297 303.816H809.76v33.764H538.297z"/><path fill="#000" d="M548.828 330.736v-13.36h9.015v1.579h-7.25v4.14h6.266v1.579h-6.266v6.062h-1.765zm20.833-4.687l1.766.453q-.563 2.172-2 3.328-1.438 1.14-3.531 1.14-2.157 0-3.516-.874-1.344-.891-2.062-2.547-.704-1.672-.704-3.594 0-2.078.797-3.625.797-1.562 2.266-2.36 1.484-.812 3.25-.812 2 0 3.36 1.016 1.374 1.015 1.906 2.875l-1.735.406q-.469-1.453-1.36-2.11-.874-.671-2.202-.671-1.547 0-2.578.734-1.032.735-1.454 1.985-.421 1.234-.421 2.562 0 1.703.5 2.969.5 1.265 1.546 1.906 1.047.625 2.266.625 1.484 0 2.516-.86 1.03-.859 1.39-2.546zm3.942 4.687v-13.36h5.047q1.328 0 2.031.126.969.172 1.64.64.673.454 1.079 1.282.406.828.406 1.828 0 1.703-1.094 2.89-1.078 1.172-3.921 1.172h-3.422v5.422h-1.766zm1.766-7h3.453q1.719 0 2.437-.64.719-.641.719-1.797 0-.844-.422-1.438-.422-.593-1.125-.781-.437-.125-1.64-.125h-3.422v4.781zm15.524 7v-13.36h5.046q1.329 0 2.032.126.968.172 1.64.64.672.454 1.078 1.282.407.828.407 1.828 0 1.703-1.094 2.89-1.078 1.172-3.922 1.172h-3.422v5.422h-1.765zm1.765-7h3.453q1.72 0 2.438-.64.719-.641.719-1.797 0-.844-.422-1.438-.422-.593-1.125-.781-.438-.125-1.64-.125h-3.423v4.781zm17.1 3.89l1.688.204q-.407 1.484-1.485 2.313-1.078.812-2.765.812-2.125 0-3.375-1.297-1.235-1.312-1.235-3.672 0-2.453 1.25-3.797 1.266-1.343 3.266-1.343 1.937 0 3.156 1.328 1.234 1.312 1.234 3.703v.437h-7.218q.093 1.594.906 2.454.812.843 2.016.843.906 0 1.546-.468.641-.485 1.016-1.516zm-5.39-2.655h5.406q-.11-1.22-.625-1.828-.782-.954-2.032-.954-1.125 0-1.906.766-.765.75-.844 2.016zm8.485 2.875l1.625-.25q.125.968.75 1.5.625.515 1.75.515t1.671-.453q.547-.469.547-1.094 0-.546-.484-.875-.328-.218-1.672-.546-1.812-.47-2.516-.797-.687-.328-1.046-.907-.36-.593-.36-1.312 0-.64.297-1.188.297-.562.813-.921.375-.282 1.03-.47.673-.202 1.423-.202 1.14 0 2 .328.86.328 1.265.89.422.563.578 1.5l-1.609.22q-.11-.75-.64-1.173-.516-.422-1.47-.422-1.14 0-1.624.375-.469.375-.469.875 0 .313.187.579.204.265.641.437.234.094 1.438.422 1.75.453 2.437.75.688.297 1.078.86.39.562.39 1.406 0 .828-.484 1.546-.468.72-1.375 1.125-.906.391-2.046.391-1.875 0-2.875-.781-.985-.781-1.25-2.328zm9.328 0l1.625-.25q.125.968.75 1.5.625.515 1.75.515t1.672-.453q.546-.469.546-1.094 0-.546-.484-.875-.328-.218-1.672-.546-1.812-.47-2.515-.797-.688-.328-1.047-.907-.36-.593-.36-1.312 0-.64.297-1.188.297-.562.813-.921.375-.282 1.031-.47.672-.202 1.422-.202 1.14 0 2 .328.86.328 1.265.89.422.563.579 1.5l-1.61.22q-.11-.75-.64-1.173-.516-.422-1.47-.422-1.14 0-1.624.375-.469.375-.469.875 0 .313.188.579.203.265.64.437.235.094 1.438.422 1.75.453 2.437.75.688.297 1.078.86.391.562.391 1.406 0 .828-.484 1.546-.47.72-1.375 1.125-.907.391-2.047.391-1.875 0-2.875-.781-.985-.781-1.25-2.328zm9.984-8.578v-1.891h1.64v1.89h-1.64zm0 11.468v-9.672h1.64v9.672h-1.64zm4.145 0v-9.672h1.469v1.36q.453-.719 1.203-1.14.765-.438 1.718-.438 1.079 0 1.766.453.688.437.969 1.234 1.156-1.687 2.984-1.687 1.453 0 2.219.797.781.796.781 2.453v6.64h-1.64v-6.093q0-.985-.157-1.407-.156-.437-.578-.703-.422-.265-.984-.265-1.016 0-1.688.687-.672.672-.672 2.156v5.625h-1.64v-6.281q0-1.094-.406-1.64-.407-.547-1.313-.547-.687 0-1.281.359-.594.36-.86 1.062-.25.704-.25 2.032v5.015h-1.64zm15.54-11.468v-1.891h1.641v1.89h-1.64zm0 11.468v-9.672h1.641v9.672h-1.64zm3.49-2.89l1.624-.25q.125.968.75 1.5.625.515 1.75.515t1.672-.453q.547-.469.547-1.094 0-.546-.484-.875-.328-.218-1.672-.546-1.813-.47-2.516-.797-.687-.328-1.047-.907-.36-.593-.36-1.312 0-.64.298-1.188.297-.562.812-.921.375-.282 1.032-.47.671-.202 1.421-.202 1.141 0 2 .328.86.328 1.266.89.422.563.578 1.5l-1.61.22q-.109-.75-.64-1.173-.515-.422-1.469-.422-1.14 0-1.625.375-.468.375-.468.875 0 .313.187.579.203.265.64.437.235.094 1.438.422 1.75.453 2.438.75.687.297 1.078.86.39.562.39 1.406 0 .828-.484 1.546-.469.72-1.375 1.125-.906.391-2.047.391-1.875 0-2.875-.781-.984-.781-1.25-2.328zm13.562 1.422l.234 1.453q-.687.14-1.234.14-.89 0-1.39-.281-.485-.281-.688-.734-.203-.47-.203-1.938v-5.578h-1.204v-1.266h1.204v-2.39l1.625-.985v3.375h1.656v1.266h-1.656v5.672q0 .687.078.89.093.204.28.329.204.109.579.109.266 0 .719-.062zm1.605-10v-1.891h1.64v1.89h-1.64zm0 11.468v-9.672h1.64v9.672h-1.64zm10.457-3.547l1.61.22q-.266 1.655-1.36 2.609-1.078.937-2.672.937-1.984 0-3.187-1.297-1.203-1.297-1.203-3.719 0-1.578.515-2.75.516-1.171 1.579-1.75 1.062-.593 2.312-.593 1.578 0 2.578.797 1 .796 1.281 2.265l-1.593.235q-.235-.97-.813-1.454-.578-.5-1.39-.5-1.235 0-2.016.891-.781.89-.781 2.813 0 1.953.75 2.843.75.875 1.953.875.969 0 1.61-.593.655-.594.827-1.829zm14.652-1.687v-1.578h5.657v4.953q-1.297 1.047-2.688 1.578-1.375.516-2.844.516-1.968 0-3.578-.844-1.61-.844-2.422-2.438-.812-1.593-.812-3.562 0-1.953.812-3.64.813-1.688 2.344-2.5 1.531-.829 3.516-.829 1.453 0 2.625.469t1.828 1.312q.672.829 1.015 2.172l-1.593.438q-.297-1.016-.75-1.594-.438-.594-1.266-.937-.828-.344-1.844-.344-1.203 0-2.093.375-.891.36-1.438.969-.531.593-.828 1.312-.516 1.234-.516 2.688 0 1.78.61 2.984.625 1.203 1.797 1.797 1.171.578 2.5.578 1.14 0 2.234-.438 1.094-.453 1.656-.953v-2.484h-3.922zm8.043 5.234v-9.672h1.469v1.47q.562-1.032 1.031-1.36.484-.328 1.062-.328.829 0 1.688.53l-.563 1.517q-.609-.36-1.203-.36-.547 0-.968.328-.422.328-.61.89-.281.876-.281 1.923v5.062h-1.625zm12.54-1.187q-.921.765-1.765 1.094-.828.312-1.797.312-1.593 0-2.453-.781-.86-.781-.86-1.985 0-.718.329-1.296.328-.594.844-.938.53-.36 1.187-.547.469-.125 1.453-.25 1.985-.234 2.922-.562.016-.344.016-.422 0-1-.469-1.422-.625-.547-1.875-.547-1.156 0-1.703.406-.547.407-.813 1.422l-1.609-.219q.219-1.015.719-1.64.5-.64 1.453-.985.953-.343 2.187-.343 1.25 0 2.016.297.781.28 1.14.734.376.437.516 1.11.078.421.078 1.515v2.187q0 2.282.11 2.891.11.594.406 1.156h-1.703q-.266-.515-.328-1.187zm-.14-3.672q-.89.375-2.672.625-1.015.14-1.437.328-.422.188-.656.531-.22.344-.22.782 0 .656.5 1.093.5.438 1.454.438.937 0 1.672-.406.75-.422 1.094-1.141.265-.563.265-1.64v-.61zm4.204 8.562v-13.375h1.484v1.25q.532-.734 1.188-1.093.672-.375 1.625-.375 1.234 0 2.172.64.953.625 1.437 1.797.485 1.156.485 2.547 0 1.484-.532 2.672-.53 1.187-1.547 1.828-1.015.625-2.14.625-.813 0-1.469-.344-.656-.343-1.062-.875v4.703h-1.641zm1.484-8.484q0 1.86.75 2.766.766.89 1.828.89 1.094 0 1.875-.922.782-.937.782-2.875 0-1.843-.766-2.765-.75-.922-1.812-.922-1.047 0-1.86.984-.797.969-.797 2.844zm8.892 4.781v-13.36h1.64v4.798q1.141-1.328 2.891-1.328 1.078 0 1.86.422.796.421 1.14 1.171.344.75.344 2.172v6.125h-1.64v-6.125q0-1.234-.532-1.797-.531-.562-1.516-.562-.719 0-1.36.39-.64.376-.921 1.016-.266.64-.266 1.781v5.297h-1.64z"/></g></svg>